STARTFONT 2.1
FONT -Fondu-ProFont-Medium-R-Normal--14-130-75-75-P-89-MacRoman-1
SIZE 13 75 75
FONTBOUNDINGBOX 9 17 0 -3
COMMENT Created by Fondu from a mac NFNT/FONT resource
STARTPROPERTIES 17
FOUNDRY "Fondu"
FAMILY_NAME "ProFont"
WEIGHT_NAME "Medium"
SLANT "R"
SETWIDTH_NAME "Normal"
ADD_STYLE_NAME ""
PIXEL_SIZE 14
POINT_SIZE 130
RESOLUTION_X 75
RESOLUTION_Y 75
SPACING "P"
AVERAGE_WIDTH 89
CHARSET_REGISTRY "MacRoman"
CHARSET_ENCODING "1"
FONT_ASCENT 14
FONT_DESCENT 3
FACE_NAME "ProFont 14"
ENDPROPERTIES
CHARS 228
STARTCHAR char0011
ENCODING 17
SWIDTH 667 0
DWIDTH 9 0
BBX 7 7 0 2
BITMAP
6C
FE
D6
7C
D6
FE
6C
ENDCHAR
STARTCHAR char0012
ENCODING 18
SWIDTH 667 0
DWIDTH 9 0
BBX 8 13 0 0
BITMAP
01
01
03
02
06
04
8C
88
D8
50
70
20
20
ENDCHAR
STARTCHAR char0013
ENCODING 19
SWIDTH 667 0
DWIDTH 9 0
BBX 9 9 0 1
BITMAP
0800
1C00
3E00
7F00
FF80
7F00
3E00
1C00
0800
ENDCHAR
STARTCHAR char0014
ENCODING 20
SWIDTH 667 0
DWIDTH 9 0
BBX 9 13 0 0
BITMAP
0400
0400
0800
7300
7F00
FE00
FE00
FF00
7F00
7F80
7F80
3F00
3600
ENDCHAR
STARTCHAR space
ENCODING 32
SWIDTH 667 0
DWIDTH 9 0
BBX 0 0 0 -3
BITMAP
ENDCHAR
STARTCHAR exclam
ENCODING 33
SWIDTH 667 0
DWIDTH 9 0
BBX 2 11 3 0
BITMAP
C0
C0
C0
C0
C0
C0
C0
C0
00
C0
C0
ENDCHAR
STARTCHAR quotedbl
ENCODING 34
SWIDTH 667 0
DWIDTH 9 0
BBX 5 5 1 8
BITMAP
D8
D8
D8
D8
D8
ENDCHAR
STARTCHAR numbersign
ENCODING 35
SWIDTH 667 0
DWIDTH 9 0
BBX 7 7 1 3
BITMAP
6C
FE
FE
6C
FE
FE
6C
ENDCHAR
STARTCHAR dollar
ENCODING 36
SWIDTH 667 0
DWIDTH 9 0
BBX 8 15 0 -2
BITMAP
18
18
3C
7E
DB
D8
7C
3E
1F
DB
DB
7E
3C
18
18
ENDCHAR
STARTCHAR percent
ENCODING 37
SWIDTH 667 0
DWIDTH 9 0
BBX 8 11 0 0
BITMAP
3F
7F
DB
DE
7C
3C
3E
7B
DB
CE
C4
ENDCHAR
STARTCHAR ampersand
ENCODING 38
SWIDTH 667 0
DWIDTH 9 0
BBX 8 11 0 0
BITMAP
30
78
CC
CC
D8
70
F3
DE
CC
FE
7B
ENDCHAR
STARTCHAR quotesingle
ENCODING 39
SWIDTH 667 0
DWIDTH 9 0
BBX 2 5 3 8
BITMAP
C0
C0
C0
C0
C0
ENDCHAR
STARTCHAR parenleft
ENCODING 40
SWIDTH 667 0
DWIDTH 9 0
BBX 6 15 1 -2
BITMAP
0C
18
30
60
C0
C0
C0
C0
C0
C0
C0
60
30
18
0C
ENDCHAR
STARTCHAR parenright
ENCODING 41
SWIDTH 667 0
DWIDTH 9 0
BBX 6 15 1 -2
BITMAP
C0
60
30
18
0C
0C
0C
0C
0C
0C
0C
18
30
60
C0
ENDCHAR
STARTCHAR asterisk
ENCODING 42
SWIDTH 667 0
DWIDTH 9 0
BBX 8 8 0 3
BITMAP
18
DB
FF
3C
3C
FF
DB
18
ENDCHAR
STARTCHAR plus
ENCODING 43
SWIDTH 667 0
DWIDTH 9 0
BBX 8 8 0 1
BITMAP
18
18
18
FF
FF
18
18
18
ENDCHAR
STARTCHAR comma
ENCODING 44
SWIDTH 667 0
DWIDTH 9 0
BBX 4 6 1 -3
BITMAP
70
70
70
30
60
C0
ENDCHAR
STARTCHAR hyphen
ENCODING 45
SWIDTH 667 0
DWIDTH 9 0
BBX 8 2 0 4
BITMAP
FF
FF
ENDCHAR
STARTCHAR period
ENCODING 46
SWIDTH 667 0
DWIDTH 9 0
BBX 3 3 2 0
BITMAP
E0
E0
E0
ENDCHAR
STARTCHAR slash
ENCODING 47
SWIDTH 667 0
DWIDTH 9 0
BBX 9 16 0 -3
BITMAP
0180
0180
0300
0300
0600
0600
0C00
0C00
1800
1800
3000
3000
6000
6000
C000
C000
ENDCHAR
STARTCHAR zero
ENCODING 48
SWIDTH 667 0
DWIDTH 9 0
BBX 8 11 0 0
BITMAP
3C
7E
C3
C7
CF
DB
F3
E3
C3
7E
3C
ENDCHAR
STARTCHAR one
ENCODING 49
SWIDTH 667 0
DWIDTH 9 0
BBX 8 11 0 0
BITMAP
18
78
78
18
18
18
18
18
18
FF
FF
ENDCHAR
STARTCHAR two
ENCODING 50
SWIDTH 667 0
DWIDTH 9 0
BBX 8 11 0 0
BITMAP
3C
7E
C3
C3
06
0C
18
30
60
FF
FF
ENDCHAR
STARTCHAR three
ENCODING 51
SWIDTH 667 0
DWIDTH 9 0
BBX 8 11 0 0
BITMAP
3C
7E
C3
C3
1E
1C
06
C3
C3
7E
3C
ENDCHAR
STARTCHAR four
ENCODING 52
SWIDTH 667 0
DWIDTH 9 0
BBX 8 11 0 0
BITMAP
06
0E
1E
36
66
C6
FF
FF
06
0F
0F
ENDCHAR
STARTCHAR five
ENCODING 53
SWIDTH 667 0
DWIDTH 9 0
BBX 8 11 0 0
BITMAP
FF
FF
C0
FC
FE
03
03
03
C3
7E
3C
ENDCHAR
STARTCHAR six
ENCODING 54
SWIDTH 667 0
DWIDTH 9 0
BBX 8 11 0 0
BITMAP
3E
7E
C0
FC
FE
C3
C3
C3
C3
7E
3C
ENDCHAR
STARTCHAR seven
ENCODING 55
SWIDTH 667 0
DWIDTH 9 0
BBX 8 11 0 0
BITMAP
FF
FF
03
03
06
0C
18
18
18
18
18
ENDCHAR
STARTCHAR eight
ENCODING 56
SWIDTH 667 0
DWIDTH 9 0
BBX 8 11 0 0
BITMAP
3C
7E
C3
C3
7E
3C
7E
C3
C3
7E
3C
ENDCHAR
STARTCHAR nine
ENCODING 57
SWIDTH 667 0
DWIDTH 9 0
BBX 8 11 0 0
BITMAP
3C
7E
C3
C3
C3
C3
7F
3F
03
7E
7C
ENDCHAR
STARTCHAR colon
ENCODING 58
SWIDTH 667 0
DWIDTH 9 0
BBX 3 8 2 0
BITMAP
E0
E0
E0
00
00
E0
E0
E0
ENDCHAR
STARTCHAR semicolon
ENCODING 59
SWIDTH 667 0
DWIDTH 9 0
BBX 4 11 1 -3
BITMAP
70
70
70
00
00
70
70
70
30
60
C0
ENDCHAR
STARTCHAR less
ENCODING 60
SWIDTH 667 0
DWIDTH 9 0
BBX 7 11 1 0
BITMAP
06
0C
18
30
60
C0
60
30
18
0C
06
ENDCHAR
STARTCHAR equal
ENCODING 61
SWIDTH 667 0
DWIDTH 9 0
BBX 8 5 0 3
BITMAP
FF
FF
00
FF
FF
ENDCHAR
STARTCHAR greater
ENCODING 62
SWIDTH 667 0
DWIDTH 9 0
BBX 7 11 1 0
BITMAP
C0
60
30
18
0C
06
0C
18
30
60
C0
ENDCHAR
STARTCHAR question
ENCODING 63
SWIDTH 667 0
DWIDTH 9 0
BBX 8 11 0 0
BITMAP
3C
7E
C3
C3
06
0C
18
10
00
18
18
ENDCHAR
STARTCHAR at
ENCODING 64
SWIDTH 667 0
DWIDTH 9 0
BBX 8 11 0 0
BITMAP
3C
7E
C3
CF
DF
DB
DF
CE
C0
7F
3F
ENDCHAR
STARTCHAR A
ENCODING 65
SWIDTH 667 0
DWIDTH 9 0
BBX 8 11 0 0
BITMAP
18
3C
3C
66
66
C3
FF
FF
C3
C3
C3
ENDCHAR
STARTCHAR B
ENCODING 66
SWIDTH 667 0
DWIDTH 9 0
BBX 8 11 0 0
BITMAP
FC
FE
C3
C3
FE
FC
C6
C3
C3
FE
FC
ENDCHAR
STARTCHAR C
ENCODING 67
SWIDTH 667 0
DWIDTH 9 0
BBX 8 11 0 0
BITMAP
3C
7E
C3
C3
C0
C0
C0
C3
C3
7E
3C
ENDCHAR
STARTCHAR D
ENCODING 68
SWIDTH 667 0
DWIDTH 9 0
BBX 8 11 0 0
BITMAP
FC
FE
C3
C3
C3
C3
C3
C3
C3
FE
FC
ENDCHAR
STARTCHAR E
ENCODING 69
SWIDTH 667 0
DWIDTH 9 0
BBX 8 11 0 0
BITMAP
FF
FF
C0
C0
FC
FC
C0
C0
C0
FF
FF
ENDCHAR
STARTCHAR F
ENCODING 70
SWIDTH 667 0
DWIDTH 9 0
BBX 8 11 0 0
BITMAP
FF
FF
C0
C0
FC
FC
C0
C0
C0
C0
C0
ENDCHAR
STARTCHAR G
ENCODING 71
SWIDTH 667 0
DWIDTH 9 0
BBX 8 11 0 0
BITMAP
3C
7E
C3
C3
C0
CF
CF
C3
C3
7E
3C
ENDCHAR
STARTCHAR H
ENCODING 72
SWIDTH 667 0
DWIDTH 9 0
BBX 8 11 0 0
BITMAP
C3
C3
C3
C3
FF
FF
C3
C3
C3
C3
C3
ENDCHAR
STARTCHAR I
ENCODING 73
SWIDTH 667 0
DWIDTH 9 0
BBX 8 11 0 0
BITMAP
FF
FF
18
18
18
18
18
18
18
FF
FF
ENDCHAR
STARTCHAR J
ENCODING 74
SWIDTH 667 0
DWIDTH 9 0
BBX 8 11 0 0
BITMAP
03
03
03
03
03
03
C3
C3
C3
7E
3C
ENDCHAR
STARTCHAR K
ENCODING 75
SWIDTH 667 0
DWIDTH 9 0
BBX 8 11 0 0
BITMAP
C3
C6
CC
D8
F0
E0
F0
D8
CC
C6
C3
ENDCHAR
STARTCHAR L
ENCODING 76
SWIDTH 667 0
DWIDTH 9 0
BBX 8 11 0 0
BITMAP
C0
C0
C0
C0
C0
C0
C0
C0
C0
FF
FF
ENDCHAR
STARTCHAR M
ENCODING 77
SWIDTH 667 0
DWIDTH 9 0
BBX 8 11 0 0
BITMAP
C3
E7
FF
FF
DB
DB
DB
C3
C3
C3
C3
ENDCHAR
STARTCHAR N
ENCODING 78
SWIDTH 667 0
DWIDTH 9 0
BBX 8 11 0 0
BITMAP
C3
E3
F3
DB
CF
C7
C3
C3
C3
C3
C3
ENDCHAR
STARTCHAR O
ENCODING 79
SWIDTH 667 0
DWIDTH 9 0
BBX 8 11 0 0
BITMAP
3C
7E
C3
C3
C3
C3
C3
C3
C3
7E
3C
ENDCHAR
STARTCHAR P
ENCODING 80
SWIDTH 667 0
DWIDTH 9 0
BBX 8 11 0 0
BITMAP
FC
FE
C3
C3
FE
FC
C0
C0
C0
C0
C0
ENDCHAR
STARTCHAR Q
ENCODING 81
SWIDTH 667 0
DWIDTH 9 0
BBX 8 13 0 -2
BITMAP
3C
7E
C3
C3
C3
C3
C3
DB
CF
7E
3E
06
03
ENDCHAR
STARTCHAR R
ENCODING 82
SWIDTH 667 0
DWIDTH 9 0
BBX 8 11 0 0
BITMAP
FC
FE
C3
C3
FE
FC
C6
C3
C3
C3
C3
ENDCHAR
STARTCHAR S
ENCODING 83
SWIDTH 667 0
DWIDTH 9 0
BBX 8 11 0 0
BITMAP
3C
7E
C3
C0
7C
3E
07
C3
C3
7E
3C
ENDCHAR
STARTCHAR T
ENCODING 84
SWIDTH 667 0
DWIDTH 9 0
BBX 8 11 0 0
BITMAP
FF
FF
18
18
18
18
18
18
18
18
18
ENDCHAR
STARTCHAR U
ENCODING 85
SWIDTH 667 0
DWIDTH 9 0
BBX 8 11 0 0
BITMAP
C3
C3
C3
C3
C3
C3
C3
C3
C3
7E
3C
ENDCHAR
STARTCHAR V
ENCODING 86
SWIDTH 667 0
DWIDTH 9 0
BBX 8 11 0 0
BITMAP
C3
C3
C3
C3
C3
66
66
3C
3C
18
18
ENDCHAR
STARTCHAR W
ENCODING 87
SWIDTH 667 0
DWIDTH 9 0
BBX 8 11 0 0
BITMAP
C3
C3
C3
C3
DB
DB
DB
FF
FF
E7
C3
ENDCHAR
STARTCHAR X
ENCODING 88
SWIDTH 667 0
DWIDTH 9 0
BBX 8 11 0 0
BITMAP
C3
C3
C3
66
3C
18
3C
66
C3
C3
C3
ENDCHAR
STARTCHAR Y
ENCODING 89
SWIDTH 667 0
DWIDTH 9 0
BBX 8 11 0 0
BITMAP
C3
C3
C3
C3
E7
7E
3C
18
18
18
18
ENDCHAR
STARTCHAR Z
ENCODING 90
SWIDTH 667 0
DWIDTH 9 0
BBX 8 11 0 0
BITMAP
FF
FF
03
06
0C
18
30
60
C0
FF
FF
ENDCHAR
STARTCHAR bracketleft
ENCODING 91
SWIDTH 667 0
DWIDTH 9 0
BBX 4 15 3 -2
BITMAP
F0
F0
C0
C0
C0
C0
C0
C0
C0
C0
C0
C0
C0
F0
F0
ENDCHAR
STARTCHAR backslash
ENCODING 92
SWIDTH 667 0
DWIDTH 9 0
BBX 9 16 0 -3
BITMAP
C000
C000
6000
6000
3000
3000
1800
1800
0C00
0C00
0600
0600
0300
0300
0180
0180
ENDCHAR
STARTCHAR bracketright
ENCODING 93
SWIDTH 667 0
DWIDTH 9 0
BBX 4 15 1 -2
BITMAP
F0
F0
30
30
30
30
30
30
30
30
30
30
30
F0
F0
ENDCHAR
STARTCHAR asciicircum
ENCODING 94
SWIDTH 667 0
DWIDTH 9 0
BBX 7 5 1 6
BITMAP
10
38
6C
C6
82
ENDCHAR
STARTCHAR underscore
ENCODING 95
SWIDTH 667 0
DWIDTH 9 0
BBX 9 2 0 -3
BITMAP
FF80
FF80
ENDCHAR
STARTCHAR grave
ENCODING 96
SWIDTH 667 0
DWIDTH 9 0
BBX 4 5 2 8
BITMAP
80
C0
60
30
10
ENDCHAR
STARTCHAR a
ENCODING 97
SWIDTH 667 0
DWIDTH 9 0
BBX 8 8 0 0
BITMAP
3F
7F
C3
C3
C7
CF
7B
33
ENDCHAR
STARTCHAR b
ENCODING 98
SWIDTH 667 0
DWIDTH 9 0
BBX 8 11 0 0
BITMAP
C0
C0
C0
FC
FE
C3
C3
C3
C3
FE
FC
ENDCHAR
STARTCHAR c
ENCODING 99
SWIDTH 667 0
DWIDTH 9 0
BBX 8 8 0 0
BITMAP
3C
7E
C3
C3
C0
C0
7F
3F
ENDCHAR
STARTCHAR d
ENCODING 100
SWIDTH 667 0
DWIDTH 9 0
BBX 8 11 0 0
BITMAP
03
03
03
3F
7F
C3
C3
C3
C3
7F
3F
ENDCHAR
STARTCHAR e
ENCODING 101
SWIDTH 667 0
DWIDTH 9 0
BBX 8 8 0 0
BITMAP
3C
7E
C3
FF
FF
C0
7F
3F
ENDCHAR
STARTCHAR f
ENCODING 102
SWIDTH 667 0
DWIDTH 9 0
BBX 6 11 2 0
BITMAP
1C
3C
60
F0
F0
60
60
60
60
60
60
ENDCHAR
STARTCHAR g
ENCODING 103
SWIDTH 667 0
DWIDTH 9 0
BBX 8 11 0 -3
BITMAP
3F
7F
C3
C3
C3
C3
7F
3F
03
3E
3C
ENDCHAR
STARTCHAR h
ENCODING 104
SWIDTH 667 0
DWIDTH 9 0
BBX 8 11 0 0
BITMAP
C0
C0
C0
FC
FE
C3
C3
C3
C3
C3
C3
ENDCHAR
STARTCHAR i
ENCODING 105
SWIDTH 667 0
DWIDTH 9 0
BBX 6 11 1 0
BITMAP
30
30
00
F0
F0
30
30
30
30
FC
FC
ENDCHAR
STARTCHAR j
ENCODING 106
SWIDTH 667 0
DWIDTH 9 0
BBX 5 14 0 -3
BITMAP
18
18
00
78
78
18
18
18
18
18
18
18
F0
E0
ENDCHAR
STARTCHAR k
ENCODING 107
SWIDTH 667 0
DWIDTH 9 0
BBX 8 11 0 0
BITMAP
C0
C0
C0
C6
CC
D8
F0
F8
CC
C6
C3
ENDCHAR
STARTCHAR l
ENCODING 108
SWIDTH 667 0
DWIDTH 9 0
BBX 6 11 1 0
BITMAP
F0
F0
30
30
30
30
30
30
30
FC
FC
ENDCHAR
STARTCHAR m
ENCODING 109
SWIDTH 667 0
DWIDTH 9 0
BBX 8 8 0 0
BITMAP
FC
FE
DB
DB
DB
DB
DB
DB
ENDCHAR
STARTCHAR n
ENCODING 110
SWIDTH 667 0
DWIDTH 9 0
BBX 8 8 0 0
BITMAP
CC
DE
F3
E3
C3
C3
C3
C3
ENDCHAR
STARTCHAR o
ENCODING 111
SWIDTH 667 0
DWIDTH 9 0
BBX 8 8 0 0
BITMAP
3C
7E
C3
C3
C3
C3
7E
3C
ENDCHAR
STARTCHAR p
ENCODING 112
SWIDTH 667 0
DWIDTH 9 0
BBX 8 11 0 -3
BITMAP
FC
FE
C3
C3
C3
C3
FE
FC
C0
C0
C0
ENDCHAR
STARTCHAR q
ENCODING 113
SWIDTH 667 0
DWIDTH 9 0
BBX 8 11 0 -3
BITMAP
3F
7F
C3
C3
C3
C3
7F
3F
03
03
03
ENDCHAR
STARTCHAR r
ENCODING 114
SWIDTH 667 0
DWIDTH 9 0
BBX 8 8 0 0
BITMAP
CC
DE
F3
E3
C0
C0
C0
C0
ENDCHAR
STARTCHAR s
ENCODING 115
SWIDTH 667 0
DWIDTH 9 0
BBX 8 8 0 0
BITMAP
3F
FF
C0
FC
3F
03
FF
FC
ENDCHAR
STARTCHAR t
ENCODING 116
SWIDTH 667 0
DWIDTH 9 0
BBX 6 11 2 0
BITMAP
60
60
60
F0
F0
60
60
60
60
3C
1C
ENDCHAR
STARTCHAR u
ENCODING 117
SWIDTH 667 0
DWIDTH 9 0
BBX 8 8 0 0
BITMAP
C3
C3
C3
C3
C7
CF
7B
33
ENDCHAR
STARTCHAR v
ENCODING 118
SWIDTH 667 0
DWIDTH 9 0
BBX 8 8 0 0
BITMAP
C3
C3
C3
66
66
3C
3C
18
ENDCHAR
STARTCHAR w
ENCODING 119
SWIDTH 667 0
DWIDTH 9 0
BBX 8 8 0 0
BITMAP
DB
DB
DB
DB
DB
DB
FF
66
ENDCHAR
STARTCHAR x
ENCODING 120
SWIDTH 667 0
DWIDTH 9 0
BBX 8 8 0 0
BITMAP
C3
66
3C
18
18
3C
66
C3
ENDCHAR
STARTCHAR y
ENCODING 121
SWIDTH 667 0
DWIDTH 9 0
BBX 8 11 0 -3
BITMAP
C3
C3
C3
C3
C3
C3
7F
3F
03
3E
3C
ENDCHAR
STARTCHAR z
ENCODING 122
SWIDTH 667 0
DWIDTH 9 0
BBX 7 8 0 0
BITMAP
FE
FE
0C
18
30
60
FE
FE
ENDCHAR
STARTCHAR braceleft
ENCODING 123
SWIDTH 667 0
DWIDTH 9 0
BBX 5 17 1 -3
BITMAP
18
38
30
30
30
30
30
60
C0
60
30
30
30
30
30
38
18
ENDCHAR
STARTCHAR bar
ENCODING 124
SWIDTH 667 0
DWIDTH 9 0
BBX 2 15 3 -2
BITMAP
C0
C0
C0
C0
C0
C0
C0
C0
C0
C0
C0
C0
C0
C0
C0
ENDCHAR
STARTCHAR braceright
ENCODING 125
SWIDTH 667 0
DWIDTH 9 0
BBX 5 17 2 -3
BITMAP
C0
E0
60
60
60
60
60
30
18
30
60
60
60
60
60
E0
C0
ENDCHAR
STARTCHAR asciitilde
ENCODING 126
SWIDTH 667 0
DWIDTH 9 0
BBX 8 3 0 5
BITMAP
71
DB
8E
ENDCHAR
STARTCHAR char007f
ENCODING 127
SWIDTH 0 0
DWIDTH 0 0
BBX 0 0 0 -3
BITMAP
ENDCHAR
STARTCHAR Adieresis
ENCODING 128
SWIDTH 667 0
DWIDTH 9 0
BBX 8 14 0 0
BITMAP
66
66
00
18
3C
3C
66
66
C3
FF
FF
C3
C3
C3
ENDCHAR
STARTCHAR Aring
ENCODING 129
SWIDTH 667 0
DWIDTH 9 0
BBX 8 14 0 0
BITMAP
18
3C
24
3C
18
3C
66
66
C3
FF
FF
C3
C3
C3
ENDCHAR
STARTCHAR Ccedilla
ENCODING 130
SWIDTH 667 0
DWIDTH 9 0
BBX 8 14 0 -3
BITMAP
3C
7E
C3
C3
C0
C0
C0
C3
C3
7E
3C
18
30
60
ENDCHAR
STARTCHAR Eacute
ENCODING 131
SWIDTH 667 0
DWIDTH 9 0
BBX 8 14 0 0
BITMAP
06
0C
18
FF
FF
C0
C0
FC
FC
C0
C0
C0
FF
FF
ENDCHAR
STARTCHAR Ntilde
ENCODING 132
SWIDTH 667 0
DWIDTH 9 0
BBX 8 14 0 0
BITMAP
71
DB
8E
C3
E3
F3
DB
CF
C7
C3
C3
C3
C3
C3
ENDCHAR
STARTCHAR Odieresis
ENCODING 133
SWIDTH 667 0
DWIDTH 9 0
BBX 8 14 0 0
BITMAP
66
66
00
3C
7E
C3
C3
C3
C3
C3
C3
C3
7E
3C
ENDCHAR
STARTCHAR Udieresis
ENCODING 134
SWIDTH 667 0
DWIDTH 9 0
BBX 8 14 0 0
BITMAP
66
66
00
C3
C3
C3
C3
C3
C3
C3
C3
C3
7E
3C
ENDCHAR
STARTCHAR aacute
ENCODING 135
SWIDTH 667 0
DWIDTH 9 0
BBX 8 13 0 0
BITMAP
04
0C
18
10
00
3F
7F
C3
C3
C7
CF
7B
33
ENDCHAR
STARTCHAR agrave
ENCODING 136
SWIDTH 667 0
DWIDTH 9 0
BBX 8 13 0 0
BITMAP
10
18
0C
04
00
3F
7F
C3
C3
C7
CF
7B
33
ENDCHAR
STARTCHAR acircumflex
ENCODING 137
SWIDTH 667 0
DWIDTH 9 0
BBX 8 12 0 0
BITMAP
18
3C
66
00
3F
7F
C3
C3
C7
CF
7B
33
ENDCHAR
STARTCHAR adieresis
ENCODING 138
SWIDTH 667 0
DWIDTH 9 0
BBX 8 11 0 0
BITMAP
66
66
00
3F
7F
C3
C3
C7
CF
7B
33
ENDCHAR
STARTCHAR atilde
ENCODING 139
SWIDTH 667 0
DWIDTH 9 0
BBX 8 12 0 0
BITMAP
71
DB
8E
00
3F
7F
C3
C3
C7
CF
7B
33
ENDCHAR
STARTCHAR aring
ENCODING 140
SWIDTH 667 0
DWIDTH 9 0
BBX 8 12 0 0
BITMAP
18
24
24
18
3F
7F
C3
C3
C7
CF
7B
33
ENDCHAR
STARTCHAR ccedilla
ENCODING 141
SWIDTH 667 0
DWIDTH 9 0
BBX 8 11 0 -3
BITMAP
3C
7E
C3
C3
C0
C0
7F
3F
18
30
60
ENDCHAR
STARTCHAR eacute
ENCODING 142
SWIDTH 667 0
DWIDTH 9 0
BBX 8 13 0 0
BITMAP
04
0C
18
10
00
3C
7E
C3
FF
FF
C0
7F
3F
ENDCHAR
STARTCHAR egrave
ENCODING 143
SWIDTH 667 0
DWIDTH 9 0
BBX 8 13 0 0
BITMAP
20
30
18
08
00
3C
7E
C3
FF
FF
C0
7F
3F
ENDCHAR
STARTCHAR ecircumflex
ENCODING 144
SWIDTH 667 0
DWIDTH 9 0
BBX 8 12 0 0
BITMAP
18
3C
66
00
3C
7E
C3
FF
FF
C0
7F
3F
ENDCHAR
STARTCHAR edieresis
ENCODING 145
SWIDTH 667 0
DWIDTH 9 0
BBX 8 11 0 0
BITMAP
66
66
00
3C
7E
C3
FF
FF
C0
7F
3F
ENDCHAR
STARTCHAR iacute
ENCODING 146
SWIDTH 667 0
DWIDTH 9 0
BBX 6 13 1 0
BITMAP
08
18
30
20
00
F0
F0
30
30
30
30
FC
FC
ENDCHAR
STARTCHAR igrave
ENCODING 147
SWIDTH 667 0
DWIDTH 9 0
BBX 6 13 1 0
BITMAP
80
C0
60
20
00
F0
F0
30
30
30
30
FC
FC
ENDCHAR
STARTCHAR icircumflex
ENCODING 148
SWIDTH 667 0
DWIDTH 9 0
BBX 6 12 1 0
BITMAP
30
78
CC
00
F0
F0
30
30
30
30
FC
FC
ENDCHAR
STARTCHAR idieresis
ENCODING 149
SWIDTH 667 0
DWIDTH 9 0
BBX 6 11 1 0
BITMAP
CC
CC
00
F0
F0
30
30
30
30
FC
FC
ENDCHAR
STARTCHAR ntilde
ENCODING 150
SWIDTH 667 0
DWIDTH 9 0
BBX 8 12 0 0
BITMAP
71
DB
8E
00
CC
DE
F3
E3
C3
C3
C3
C3
ENDCHAR
STARTCHAR oacute
ENCODING 151
SWIDTH 667 0
DWIDTH 9 0
BBX 8 13 0 0
BITMAP
04
0C
18
10
00
3C
7E
C3
C3
C3
C3
7E
3C
ENDCHAR
STARTCHAR ograve
ENCODING 152
SWIDTH 667 0
DWIDTH 9 0
BBX 8 13 0 0
BITMAP
20
30
18
08
00
3C
7E
C3
C3
C3
C3
7E
3C
ENDCHAR
STARTCHAR ocircumflex
ENCODING 153
SWIDTH 667 0
DWIDTH 9 0
BBX 8 12 0 0
BITMAP
18
3C
66
00
3C
7E
C3
C3
C3
C3
7E
3C
ENDCHAR
STARTCHAR odieresis
ENCODING 154
SWIDTH 667 0
DWIDTH 9 0
BBX 8 11 0 0
BITMAP
66
66
00
3C
7E
C3
C3
C3
C3
7E
3C
ENDCHAR
STARTCHAR otilde
ENCODING 155
SWIDTH 667 0
DWIDTH 9 0
BBX 8 12 0 0
BITMAP
71
DB
8E
00
3C
7E
C3
C3
C3
C3
7E
3C
ENDCHAR
STARTCHAR uacute
ENCODING 156
SWIDTH 667 0
DWIDTH 9 0
BBX 8 13 0 0
BITMAP
04
0C
18
10
00
C3
C3
C3
C3
C7
CF
7B
33
ENDCHAR
STARTCHAR ugrave
ENCODING 157
SWIDTH 667 0
DWIDTH 9 0
BBX 8 13 0 0
BITMAP
20
30
18
08
00
C3
C3
C3
C3
C7
CF
7B
33
ENDCHAR
STARTCHAR ucircumflex
ENCODING 158
SWIDTH 667 0
DWIDTH 9 0
BBX 8 12 0 0
BITMAP
18
3C
66
00
C3
C3
C3
C3
C7
CF
7B
33
ENDCHAR
STARTCHAR udieresis
ENCODING 159
SWIDTH 667 0
DWIDTH 9 0
BBX 8 11 0 0
BITMAP
66
66
00
C3
C3
C3
C3
C7
EF
7B
33
ENDCHAR
STARTCHAR dagger
ENCODING 160
SWIDTH 667 0
DWIDTH 9 0
BBX 4 8 2 3
BITMAP
60
60
F0
F0
60
60
60
60
ENDCHAR
STARTCHAR degree
ENCODING 161
SWIDTH 667 0
DWIDTH 9 0
BBX 6 6 2 6
BITMAP
30
78
CC
CC
78
30
ENDCHAR
STARTCHAR cent
ENCODING 162
SWIDTH 667 0
DWIDTH 9 0
BBX 8 12 0 -2
BITMAP
18
18
3C
7E
DB
DB
D8
D8
7F
3F
18
18
ENDCHAR
STARTCHAR sterling
ENCODING 163
SWIDTH 667 0
DWIDTH 9 0
BBX 8 12 0 0
BITMAP
78
FC
CC
C0
F0
F0
C0
C0
C0
C7
FE
FC
ENDCHAR
STARTCHAR section
ENCODING 164
SWIDTH 667 0
DWIDTH 9 0
BBX 8 16 0 -2
BITMAP
3C
7E
63
63
33
D8
CC
C6
63
33
1B
CC
C6
C6
7E
3C
ENDCHAR
STARTCHAR bullet
ENCODING 165
SWIDTH 667 0
DWIDTH 9 0
BBX 7 7 0 2
BITMAP
38
7C
FE
FE
FE
7C
38
ENDCHAR
STARTCHAR paragraph
ENCODING 166
SWIDTH 667 0
DWIDTH 9 0
BBX 8 13 0 0
BITMAP
3F
7F
DB
DB
DB
DB
7F
3F
1B
1B
1B
1B
1B
ENDCHAR
STARTCHAR germandbls
ENCODING 167
SWIDTH 667 0
DWIDTH 9 0
BBX 8 15 0 -2
BITMAP
1C
3E
63
C3
C3
C6
CC
CC
C6
C3
C3
DE
DC
C0
C0
ENDCHAR
STARTCHAR registered
ENCODING 168
SWIDTH 667 0
DWIDTH 9 0
BBX 8 10 0 1
BITMAP
F8
FC
06
F3
FB
DB
F3
FB
DE
CC
ENDCHAR
STARTCHAR copyright
ENCODING 169
SWIDTH 667 0
DWIDTH 9 0
BBX 8 11 0 0
BITMAP
78
FC
86
7B
FB
C3
FB
7B
86
FC
78
ENDCHAR
STARTCHAR trademark
ENCODING 170
SWIDTH 667 0
DWIDTH 9 0
BBX 9 5 0 6
BITMAP
FC80
2780
2780
2480
2480
ENDCHAR
STARTCHAR acute
ENCODING 171
SWIDTH 667 0
DWIDTH 9 0
BBX 3 4 3 7
BITMAP
20
60
C0
80
ENDCHAR
STARTCHAR dieresis
ENCODING 172
SWIDTH 667 0
DWIDTH 9 0
BBX 6 2 1 9
BITMAP
CC
CC
ENDCHAR
STARTCHAR notequal
ENCODING 173
SWIDTH 667 0
DWIDTH 9 0
BBX 8 9 0 1
BITMAP
02
06
FF
FF
18
FF
FF
60
40
ENDCHAR
STARTCHAR AE
ENCODING 174
SWIDTH 667 0
DWIDTH 9 0
BBX 8 11 0 0
BITMAP
3F
7F
D8
D8
FC
FC
D8
D8
D8
DF
DF
ENDCHAR
STARTCHAR Oslash
ENCODING 175
SWIDTH 667 0
DWIDTH 9 0
BBX 8 11 0 0
BITMAP
3C
7E
C3
C7
CF
DB
F3
E3
C3
7E
3C
ENDCHAR
STARTCHAR infinity
ENCODING 176
SWIDTH 667 0
DWIDTH 9 0
BBX 8 5 0 3
BITMAP
66
FF
99
FF
66
ENDCHAR
STARTCHAR plusminus
ENCODING 177
SWIDTH 667 0
DWIDTH 9 0
BBX 8 9 0 0
BITMAP
18
18
18
FF
FF
18
18
FF
FF
ENDCHAR
STARTCHAR lessequal
ENCODING 178
SWIDTH 667 0
DWIDTH 9 0
BBX 6 12 1 0
BITMAP
08
18
30
60
C0
60
30
18
08
00
FC
FC
ENDCHAR
STARTCHAR greaterequal
ENCODING 179
SWIDTH 667 0
DWIDTH 9 0
BBX 6 12 2 0
BITMAP
40
60
30
18
0C
18
30
60
40
00
FC
FC
ENDCHAR
STARTCHAR yen
ENCODING 180
SWIDTH 667 0
DWIDTH 9 0
BBX 8 11 0 0
BITMAP
C3
66
3C
FF
FF
18
FF
FF
18
18
18
ENDCHAR
STARTCHAR mu
ENCODING 181
SWIDTH 667 0
DWIDTH 9 0
BBX 8 11 0 -3
BITMAP
CC
CC
CC
CC
CC
CC
FF
F3
C0
C0
C0
ENDCHAR
STARTCHAR partialdiff
ENCODING 182
SWIDTH 667 0
DWIDTH 9 0
BBX 6 11 2 0
BITMAP
60
30
18
18
3C
6C
CC
CC
CC
78
30
ENDCHAR
STARTCHAR summation
ENCODING 183
SWIDTH 667 0
DWIDTH 9 0
BBX 8 11 0 0
BITMAP
FF
FF
63
30
1E
0E
18
30
63
FF
FF
ENDCHAR
STARTCHAR product
ENCODING 184
SWIDTH 667 0
DWIDTH 9 0
BBX 7 11 0 0
BITMAP
FE
FE
6C
6C
6C
6C
6C
6C
6C
6C
6C
ENDCHAR
STARTCHAR pi
ENCODING 185
SWIDTH 667 0
DWIDTH 9 0
BBX 7 8 0 0
BITMAP
FE
FE
6C
6C
6C
6C
6C
6C
ENDCHAR
STARTCHAR integral
ENCODING 186
SWIDTH 667 0
DWIDTH 9 0
BBX 8 17 0 -3
BITMAP
07
0F
18
18
18
18
18
18
18
18
18
18
18
18
18
F0
E0
ENDCHAR
STARTCHAR ordfeminine
ENCODING 187
SWIDTH 667 0
DWIDTH 9 0
BBX 6 9 2 5
BITMAP
3C
7C
CC
CC
7C
3C
00
FC
FC
ENDCHAR
STARTCHAR ordmasculine
ENCODING 188
SWIDTH 667 0
DWIDTH 9 0
BBX 6 9 2 5
BITMAP
30
78
CC
CC
78
30
00
FC
FC
ENDCHAR
STARTCHAR Omega
ENCODING 189
SWIDTH 667 0
DWIDTH 9 0
BBX 8 11 0 0
BITMAP
3C
7E
C3
C3
C3
C3
C3
66
66
E7
C3
ENDCHAR
STARTCHAR ae
ENCODING 190
SWIDTH 667 0
DWIDTH 9 0
BBX 8 8 0 0
BITMAP
3C
7E
DB
DF
DF
D8
7F
3F
ENDCHAR
STARTCHAR oslash
ENCODING 191
SWIDTH 667 0
DWIDTH 9 0
BBX 8 8 0 0
BITMAP
3C
7E
C7
CF
F3
E3
7E
3C
ENDCHAR
STARTCHAR questiondown
ENCODING 192
SWIDTH 667 0
DWIDTH 9 0
BBX 8 11 0 0
BITMAP
18
18
00
08
18
30
60
C3
C3
7E
3C
ENDCHAR
STARTCHAR exclamdown
ENCODING 193
SWIDTH 667 0
DWIDTH 9 0
BBX 2 11 5 0
BITMAP
C0
C0
00
C0
C0
C0
C0
C0
C0
C0
C0
ENDCHAR
STARTCHAR logicalnot
ENCODING 194
SWIDTH 667 0
DWIDTH 9 0
BBX 8 4 0 2
BITMAP
FF
FF
03
03
ENDCHAR
STARTCHAR radical
ENCODING 195
SWIDTH 667 0
DWIDTH 9 0
BBX 8 10 0 0
BITMAP
03
07
04
0C
88
D8
50
70
20
20
ENDCHAR
STARTCHAR florin
ENCODING 196
SWIDTH 667 0
DWIDTH 9 0
BBX 8 17 0 -3
BITMAP
07
0F
18
18
18
18
3C
3C
18
18
18
18
18
18
18
F0
E0
ENDCHAR
STARTCHAR approxequal
ENCODING 197
SWIDTH 667 0
DWIDTH 9 0
BBX 8 7 0 2
BITMAP
01
3F
FC
81
3F
FC
80
ENDCHAR
STARTCHAR Delta
ENCODING 198
SWIDTH 667 0
DWIDTH 9 0
BBX 8 9 0 0
BITMAP
18
18
3C
3C
66
66
C3
FF
FF
ENDCHAR
STARTCHAR guillemotleft
ENCODING 199
SWIDTH 667 0
DWIDTH 9 0
BBX 8 7 0 0
BITMAP
33
66
CC
CC
CC
66
33
ENDCHAR
STARTCHAR guillemotright
ENCODING 200
SWIDTH 667 0
DWIDTH 9 0
BBX 8 7 0 0
BITMAP
CC
66
33
33
33
66
CC
ENDCHAR
STARTCHAR ellipsis
ENCODING 201
SWIDTH 667 0
DWIDTH 9 0
BBX 8 2 0 0
BITMAP
DB
DB
ENDCHAR
STARTCHAR nbspace
ENCODING 202
SWIDTH 667 0
DWIDTH 9 0
BBX 0 0 0 -3
BITMAP
ENDCHAR
STARTCHAR Agrave
ENCODING 203
SWIDTH 667 0
DWIDTH 9 0
BBX 8 14 0 0
BITMAP
60
30
18
18
3C
3C
66
66
C3
FF
FF
C3
C3
C3
ENDCHAR
STARTCHAR Atilde
ENCODING 204
SWIDTH 667 0
DWIDTH 9 0
BBX 8 14 0 0
BITMAP
71
DB
8E
18
3C
3C
66
66
C3
FF
FF
C3
C3
C3
ENDCHAR
STARTCHAR Otilde
ENCODING 205
SWIDTH 667 0
DWIDTH 9 0
BBX 8 14 0 0
BITMAP
71
DB
8E
3C
7E
C3
C3
C3
C3
C3
C3
C3
7E
3C
ENDCHAR
STARTCHAR OE
ENCODING 206
SWIDTH 667 0
DWIDTH 9 0
BBX 8 11 0 0
BITMAP
3F
7F
D8
D8
DC
DC
D8
D8
D8
7F
3F
ENDCHAR
STARTCHAR oe
ENCODING 207
SWIDTH 667 0
DWIDTH 9 0
BBX 8 8 0 0
BITMAP
24
7E
DB
DF
DF
D8
7F
27
ENDCHAR
STARTCHAR endash
ENCODING 208
SWIDTH 667 0
DWIDTH 9 0
BBX 5 2 2 5
BITMAP
F8
F8
ENDCHAR
STARTCHAR emdash
ENCODING 209
SWIDTH 667 0
DWIDTH 9 0
BBX 9 2 0 5
BITMAP
FF80
FF80
ENDCHAR
STARTCHAR quotedblleft
ENCODING 210
SWIDTH 667 0
DWIDTH 9 0
BBX 7 5 1 6
BITMAP
36
6C
D8
D8
D8
ENDCHAR
STARTCHAR quotedblright
ENCODING 211
SWIDTH 667 0
DWIDTH 9 0
BBX 7 5 1 6
BITMAP
36
36
36
6C
D8
ENDCHAR
STARTCHAR quoteleft
ENCODING 212
SWIDTH 667 0
DWIDTH 9 0
BBX 4 5 3 6
BITMAP
30
60
C0
C0
C0
ENDCHAR
STARTCHAR quoteright
ENCODING 213
SWIDTH 667 0
DWIDTH 9 0
BBX 4 5 3 6
BITMAP
30
30
30
60
C0
ENDCHAR
STARTCHAR divide
ENCODING 214
SWIDTH 667 0
DWIDTH 9 0
BBX 8 8 0 2
BITMAP
18
18
00
FF
FF
00
18
18
ENDCHAR
STARTCHAR lozenge
ENCODING 215
SWIDTH 667 0
DWIDTH 9 0
BBX 9 9 0 1
BITMAP
0800
1C00
3600
6300
C180
6300
3600
1C00
0800
ENDCHAR
STARTCHAR ydieresis
ENCODING 216
SWIDTH 667 0
DWIDTH 9 0
BBX 8 14 0 -3
BITMAP
66
66
00
C3
C3
C3
C3
C3
C3
7F
3F
03
3E
3C
ENDCHAR
STARTCHAR Ydieresis
ENCODING 217
SWIDTH 667 0
DWIDTH 9 0
BBX 8 14 0 0
BITMAP
66
66
00
C3
C3
C3
C3
E7
7E
3C
18
18
18
18
ENDCHAR
STARTCHAR fraction
ENCODING 218
SWIDTH 667 0
DWIDTH 9 0
BBX 6 5 0 2
BITMAP
0C
18
30
60
C0
ENDCHAR
STARTCHAR currency
ENCODING 219
SWIDTH 667 0
DWIDTH 9 0
BBX 8 8 0 0
BITMAP
81
42
3C
24
24
3C
42
81
ENDCHAR
STARTCHAR guilsinglleft
ENCODING 220
SWIDTH 667 0
DWIDTH 9 0
BBX 4 7 0 0
BITMAP
30
60
C0
C0
C0
60
30
ENDCHAR
STARTCHAR guilsinglright
ENCODING 221
SWIDTH 667 0
DWIDTH 9 0
BBX 4 7 0 0
BITMAP
C0
60
30
30
30
60
C0
ENDCHAR
STARTCHAR fi
ENCODING 222
SWIDTH 667 0
DWIDTH 9 0
BBX 8 11 0 0
BITMAP
1C
3C
60
FE
FE
66
66
66
66
6F
6F
ENDCHAR
STARTCHAR fl
ENCODING 223
SWIDTH 667 0
DWIDTH 9 0
BBX 9 11 0 0
BITMAP
1F00
3F00
6300
F300
F300
6300
6300
6300
6300
6780
6780
ENDCHAR
STARTCHAR daggerdbl
ENCODING 224
SWIDTH 667 0
DWIDTH 9 0
BBX 4 9 2 2
BITMAP
60
60
F0
F0
60
F0
F0
60
60
ENDCHAR
STARTCHAR periodcentered
ENCODING 225
SWIDTH 667 0
DWIDTH 9 0
BBX 3 3 3 4
BITMAP
E0
E0
E0
ENDCHAR
STARTCHAR quotesinglbase
ENCODING 226
SWIDTH 667 0
DWIDTH 9 0
BBX 4 5 0 -2
BITMAP
30
30
30
60
C0
ENDCHAR
STARTCHAR quotedblbase
ENCODING 227
SWIDTH 667 0
DWIDTH 9 0
BBX 7 5 0 -2
BITMAP
36
36
36
6C
D8
ENDCHAR
STARTCHAR perthousand
ENCODING 228
SWIDTH 667 0
DWIDTH 9 0
BBX 9 13 0 0
BITMAP
3F80
7F80
D980
DB00
DE00
7C00
3800
3F00
7F80
D680
9680
1F80
0F00
ENDCHAR
STARTCHAR Acircumflex
ENCODING 229
SWIDTH 667 0
DWIDTH 9 0
BBX 8 14 0 0
BITMAP
18
3C
66
18
3C
3C
66
66
C3
FF
FF
C3
C3
C3
ENDCHAR
STARTCHAR Ecircumflex
ENCODING 230
SWIDTH 667 0
DWIDTH 9 0
BBX 8 14 0 0
BITMAP
18
3C
66
FF
FF
C0
C0
FC
FC
C0
C0
C0
FF
FF
ENDCHAR
STARTCHAR Aacute
ENCODING 231
SWIDTH 667 0
DWIDTH 9 0
BBX 8 14 0 0
BITMAP
06
0C
18
18
3C
3C
66
66
C3
FF
FF
C3
C3
C3
ENDCHAR
STARTCHAR Edieresis
ENCODING 232
SWIDTH 667 0
DWIDTH 9 0
BBX 8 14 0 0
BITMAP
66
66
00
FF
FF
C0
C0
FC
FC
C0
C0
C0
FF
FF
ENDCHAR
STARTCHAR Egrave
ENCODING 233
SWIDTH 667 0
DWIDTH 9 0
BBX 8 14 0 0
BITMAP
60
30
18
FF
FF
C0
C0
FC
FC
C0
C0
C0
FF
FF
ENDCHAR
STARTCHAR Iacute
ENCODING 234
SWIDTH 667 0
DWIDTH 9 0
BBX 8 14 0 0
BITMAP
06
0C
18
FF
FF
18
18
18
18
18
18
18
FF
FF
ENDCHAR
STARTCHAR Icircumflex
ENCODING 235
SWIDTH 667 0
DWIDTH 9 0
BBX 8 14 0 0
BITMAP
18
3C
66
FF
FF
18
18
18
18
18
18
18
FF
FF
ENDCHAR
STARTCHAR Idieresis
ENCODING 236
SWIDTH 667 0
DWIDTH 9 0
BBX 8 14 0 0
BITMAP
66
66
00
FF
FF
18
18
18
18
18
18
18
FF
FF
ENDCHAR
STARTCHAR Igrave
ENCODING 237
SWIDTH 667 0
DWIDTH 9 0
BBX 8 14 0 0
BITMAP
60
30
18
FF
FF
18
18
18
18
18
18
18
FF
FF
ENDCHAR
STARTCHAR Oacute
ENCODING 238
SWIDTH 667 0
DWIDTH 9 0
BBX 8 14 0 0
BITMAP
06
0C
18
3C
7E
C3
C3
C3
C3
C3
C3
C3
7E
3C
ENDCHAR
STARTCHAR Ocircumflex
ENCODING 239
SWIDTH 667 0
DWIDTH 9 0
BBX 8 14 0 0
BITMAP
18
3C
66
00
3C
7E
C3
C3
C3
C3
C3
C3
7E
3C
ENDCHAR
STARTCHAR apple
ENCODING 240
SWIDTH 667 0
DWIDTH 9 0
BBX 9 13 0 0
BITMAP
0400
0400
0800
7300
7F00
FE00
FE00
FF00
7F00
7F80
7F80
3F00
3600
ENDCHAR
STARTCHAR Ograve
ENCODING 241
SWIDTH 667 0
DWIDTH 9 0
BBX 8 14 0 0
BITMAP
60
30
18
3C
7E
C3
C3
C3
C3
C3
C3
C3
7E
3C
ENDCHAR
STARTCHAR Uacute
ENCODING 242
SWIDTH 667 0
DWIDTH 9 0
BBX 8 14 0 0
BITMAP
06
0C
18
C3
C3
C3
C3
C3
C3
C3
C3
C3
7E
3C
ENDCHAR
STARTCHAR Ucircumflex
ENCODING 243
SWIDTH 667 0
DWIDTH 9 0
BBX 8 14 0 0
BITMAP
18
3C
66
00
C3
C3
C3
C3
C3
C3
C3
C3
7E
3C
ENDCHAR
STARTCHAR Ugrave
ENCODING 244
SWIDTH 667 0
DWIDTH 9 0
BBX 8 14 0 0
BITMAP
60
30
18
C3
C3
C3
C3
C3
C3
C3
C3
C3
7E
3C
ENDCHAR
STARTCHAR dotlessi
ENCODING 245
SWIDTH 667 0
DWIDTH 9 0
BBX 6 8 1 0
BITMAP
F0
F0
30
30
30
30
FC
FC
ENDCHAR
STARTCHAR circumflex
ENCODING 246
SWIDTH 667 0
DWIDTH 9 0
BBX 6 3 1 10
BITMAP
30
78
CC
ENDCHAR
STARTCHAR tilde
ENCODING 247
SWIDTH 667 0
DWIDTH 9 0
BBX 8 3 0 9
BITMAP
71
DB
8E
ENDCHAR
STARTCHAR macron
ENCODING 248
SWIDTH 667 0
DWIDTH 9 0
BBX 4 2 2 9
BITMAP
F0
F0
ENDCHAR
STARTCHAR breve
ENCODING 249
SWIDTH 667 0
DWIDTH 9 0
BBX 7 3 1 9
BITMAP
C6
7C
38
ENDCHAR
STARTCHAR dotaccent
ENCODING 250
SWIDTH 667 0
DWIDTH 9 0
BBX 3 3 3 8
BITMAP
E0
E0
E0
ENDCHAR
STARTCHAR ring
ENCODING 251
SWIDTH 667 0
DWIDTH 9 0
BBX 4 4 2 8
BITMAP
60
90
90
60
ENDCHAR
STARTCHAR cedilla
ENCODING 252
SWIDTH 667 0
DWIDTH 9 0
BBX 4 5 1 -3
BITMAP
70
70
30
60
C0
ENDCHAR
STARTCHAR hungarumlaut
ENCODING 253
SWIDTH 667 0
DWIDTH 9 0
BBX 8 4 0 9
BITMAP
21
63
C6
84
ENDCHAR
STARTCHAR ogonek
ENCODING 254
SWIDTH 667 0
DWIDTH 9 0
BBX 4 5 2 -3
BITMAP
E0
E0
C0
60
30
ENDCHAR
STARTCHAR caron
ENCODING 255
SWIDTH 667 0
DWIDTH 9 0
BBX 5 4 1 9
BITMAP
88
D8
70
20
ENDCHAR
ENDFONT
