STARTFONT 2.1
FONT -Fondu-ProFont-Medium-R-Normal--24-230-75-75-P-159-MacRoman-1
SIZE 23 75 75
FONTBOUNDINGBOX 16 29 0 -5
COMMENT Created by Fondu from a mac NFNT/FONT resource
STARTPROPERTIES 17
FOUNDRY "Fondu"
FAMILY_NAME "ProFont"
WEIGHT_NAME "Medium"
SLANT "R"
SETWIDTH_NAME "Normal"
ADD_STYLE_NAME ""
PIXEL_SIZE 24
POINT_SIZE 230
RESOLUTION_X 75
RESOLUTION_Y 75
SPACING "P"
AVERAGE_WIDTH 159
CHARSET_REGISTRY "MacRoman"
CHARSET_ENCODING "1"
FONT_ASCENT 24
FONT_DESCENT 5
FACE_NAME "ProFont 24"
ENDPROPERTIES
CHARS 228
STARTCHAR char0011
ENCODING 17
SWIDTH 667 0
DWIDTH 16 0
BBX 13 13 0 3
BITMAP
3DE0
7FF0
FFF8
E738
E738
FFF8
7FF0
FFF8
E738
E738
FFF8
7FF0
3DE0
ENDCHAR
STARTCHAR char0012
ENCODING 18
SWIDTH 667 0
DWIDTH 16 0
BBX 15 22 0 0
BITMAP
000C
001E
001C
003C
0038
0078
0070
00F0
00E0
01E0
01C0
03C0
4380
E780
E700
FF00
7E00
7E00
3C00
3C00
1800
1800
ENDCHAR
STARTCHAR char0013
ENCODING 19
SWIDTH 667 0
DWIDTH 16 0
BBX 15 15 0 2
BITMAP
0100
0380
07C0
0FE0
1FF0
3FF8
7FFC
FFFE
7FFC
3FF8
1FF0
0FE0
07C0
0380
0100
ENDCHAR
STARTCHAR char0014
ENCODING 20
SWIDTH 667 0
DWIDTH 16 0
BBX 15 23 0 0
BITMAP
0020
0060
00C0
00C0
0080
1E70
3FFC
7FFC
7FF8
7FF8
FFF8
FFF0
FFF0
FFF8
7FF8
7FFC
7FFE
7FFE
3FFC
3FFC
1FF8
1FF0
0C60
ENDCHAR
STARTCHAR space
ENCODING 32
SWIDTH 667 0
DWIDTH 16 0
BBX 0 0 0 -5
BITMAP
ENDCHAR
STARTCHAR exclam
ENCODING 33
SWIDTH 667 0
DWIDTH 16 0
BBX 3 19 5 0
BITMAP
E0
E0
E0
E0
E0
E0
E0
E0
E0
E0
E0
E0
E0
E0
00
00
E0
E0
E0
ENDCHAR
STARTCHAR quotedbl
ENCODING 34
SWIDTH 667 0
DWIDTH 16 0
BBX 9 9 2 13
BITMAP
E380
E380
E380
E380
E380
E380
E380
E380
E380
ENDCHAR
STARTCHAR numbersign
ENCODING 35
SWIDTH 667 0
DWIDTH 16 0
BBX 15 15 0 5
BITMAP
1C70
1C70
1C70
FFFE
FFFE
FFFE
1C70
1C70
1C70
FFFE
FFFE
FFFE
1C70
1C70
1C70
ENDCHAR
STARTCHAR dollar
ENCODING 36
SWIDTH 667 0
DWIDTH 16 0
BBX 13 25 0 -3
BITMAP
0700
0700
0700
0F80
3FE0
7FF0
7770
E738
E738
E700
7700
7F80
3FE0
0FF0
0770
0738
E738
E738
7770
7FF0
3FE0
0F80
0700
0700
0700
ENDCHAR
STARTCHAR percent
ENCODING 37
SWIDTH 667 0
DWIDTH 16 0
BBX 14 19 0 0
BITMAP
1FFC
3FFC
7FFC
661C
E73C
E778
E7F0
67E0
7FE0
3FC0
1FF0
1F30
3F38
7F38
F738
E330
E3F0
E1E0
E0C0
ENDCHAR
STARTCHAR ampersand
ENCODING 38
SWIDTH 667 0
DWIDTH 16 0
BBX 14 19 0 0
BITMAP
0F00
3FC0
7FE0
70E0
E1E0
E3C0
E780
7F00
7E00
3C00
7E08
7F1C
E7BC
E3F8
E1F0
71F0
7FF8
3FBC
0E18
ENDCHAR
STARTCHAR quotesingle
ENCODING 39
SWIDTH 667 0
DWIDTH 16 0
BBX 3 9 5 13
BITMAP
E0
E0
E0
E0
E0
E0
E0
E0
E0
ENDCHAR
STARTCHAR parenleft
ENCODING 40
SWIDTH 667 0
DWIDTH 16 0
BBX 9 25 3 -3
BITMAP
0300
0780
0F00
1E00
3C00
7800
F000
E000
E000
E000
E000
E000
E000
E000
E000
E000
E000
E000
F000
7800
3C00
1E00
0F00
0780
0300
ENDCHAR
STARTCHAR parenright
ENCODING 41
SWIDTH 667 0
DWIDTH 16 0
BBX 9 25 2 -3
BITMAP
6000
F000
7800
3C00
1E00
0F00
0780
0380
0380
0380
0380
0380
0380
0380
0380
0380
0380
0380
0780
0F00
1E00
3C00
7800
F000
6000
ENDCHAR
STARTCHAR asterisk
ENCODING 42
SWIDTH 667 0
DWIDTH 16 0
BBX 13 13 0 5
BITMAP
0700
0700
6730
F778
7FF0
3FE0
0F80
3FE0
7FF0
F778
6730
0700
0700
ENDCHAR
STARTCHAR plus
ENCODING 43
SWIDTH 667 0
DWIDTH 16 0
BBX 13 13 0 3
BITMAP
0700
0700
0700
0700
0700
FFF8
FFF8
FFF8
0700
0700
0700
0700
0700
ENDCHAR
STARTCHAR comma
ENCODING 44
SWIDTH 667 0
DWIDTH 16 0
BBX 6 11 3 -5
BITMAP
38
7C
7C
7C
3C
1C
1C
3C
78
F0
60
ENDCHAR
STARTCHAR hyphen
ENCODING 45
SWIDTH 667 0
DWIDTH 16 0
BBX 13 3 0 8
BITMAP
FFF8
FFF8
FFF8
ENDCHAR
STARTCHAR period
ENCODING 46
SWIDTH 667 0
DWIDTH 16 0
BBX 5 5 4 1
BITMAP
70
F8
F8
F8
70
ENDCHAR
STARTCHAR slash
ENCODING 47
SWIDTH 667 0
DWIDTH 16 0
BBX 15 26 0 -5
BITMAP
000E
000E
001C
001C
0038
0038
0070
0070
00E0
00E0
01C0
01C0
0380
0380
0700
0700
0E00
0E00
1C00
1C00
3800
3800
7000
7000
E000
E000
ENDCHAR
STARTCHAR zero
ENCODING 48
SWIDTH 667 0
DWIDTH 16 0
BBX 14 19 0 0
BITMAP
0FC0
3FF0
7FF8
7038
E03C
E07C
E0FC
E1FC
E3DC
E79C
EF1C
FE1C
FC1C
F81C
F01C
7038
7FF8
3FF0
0FC0
ENDCHAR
STARTCHAR one
ENCODING 49
SWIDTH 667 0
DWIDTH 16 0
BBX 13 19 0 0
BITMAP
0700
0700
0F00
7F00
7F00
7F00
0700
0700
0700
0700
0700
0700
0700
0700
0700
0700
FFF8
FFF8
FFF8
ENDCHAR
STARTCHAR two
ENCODING 50
SWIDTH 667 0
DWIDTH 16 0
BBX 14 19 0 0
BITMAP
0FC0
3FF0
7FF8
7038
E01C
E01C
001C
0038
0078
00F0
01E0
03C0
0780
0F00
1E00
3C00
7FFC
FFFC
FFFC
ENDCHAR
STARTCHAR three
ENCODING 51
SWIDTH 667 0
DWIDTH 16 0
BBX 14 19 0 0
BITMAP
0FC0
3FF0
7FF8
7038
E01C
E01C
001C
0078
03F0
03E0
03F0
0078
001C
E01C
E01C
7038
7FF8
3FF0
0FC0
ENDCHAR
STARTCHAR four
ENCODING 52
SWIDTH 667 0
DWIDTH 16 0
BBX 14 19 0 0
BITMAP
00E0
01E0
03E0
07E0
0FE0
1EE0
3CE0
78E0
F0E0
E0E0
FFFC
FFFC
FFFC
00E0
00E0
00E0
07FC
07FC
07FC
ENDCHAR
STARTCHAR five
ENCODING 53
SWIDTH 667 0
DWIDTH 16 0
BBX 14 19 0 0
BITMAP
FFFC
FFFC
FFFC
E000
E000
FFC0
FFF0
FFF8
0038
001C
001C
001C
001C
E01C
E01C
7038
7FF8
3FF0
0FC0
ENDCHAR
STARTCHAR six
ENCODING 54
SWIDTH 667 0
DWIDTH 16 0
BBX 14 19 0 0
BITMAP
0FE0
3FE0
7FE0
7000
E000
FFC0
FFF0
FFF8
E038
E01C
E01C
E01C
E01C
E01C
E01C
7038
7FF8
3FF0
0FC0
ENDCHAR
STARTCHAR seven
ENCODING 55
SWIDTH 667 0
DWIDTH 16 0
BBX 14 19 0 0
BITMAP
FFFC
FFFC
FFFC
001C
001C
001C
003C
0078
00F0
01E0
03C0
0780
0700
0700
0700
0700
0700
0700
0700
ENDCHAR
STARTCHAR eight
ENCODING 56
SWIDTH 667 0
DWIDTH 16 0
BBX 14 19 0 0
BITMAP
0FC0
3FF0
7FF8
7038
E01C
E01C
E01C
7878
3FF0
1FE0
3FF0
7878
E01C
E01C
E01C
7038
7FF8
3FF0
0FC0
ENDCHAR
STARTCHAR nine
ENCODING 57
SWIDTH 667 0
DWIDTH 16 0
BBX 14 19 0 0
BITMAP
0FC0
3FF0
7FF8
7038
E01C
E01C
E01C
E01C
E01C
E01C
701C
7FFC
3FFC
0FFC
001C
0038
1FF8
1FF0
1FC0
ENDCHAR
STARTCHAR colon
ENCODING 58
SWIDTH 667 0
DWIDTH 16 0
BBX 5 13 4 1
BITMAP
70
F8
F8
F8
70
00
00
00
70
F8
F8
F8
70
ENDCHAR
STARTCHAR semicolon
ENCODING 59
SWIDTH 667 0
DWIDTH 16 0
BBX 6 19 3 -5
BITMAP
38
7C
7C
7C
38
00
00
00
38
7C
7C
7C
3C
1C
1C
3C
78
F0
60
ENDCHAR
STARTCHAR less
ENCODING 60
SWIDTH 667 0
DWIDTH 16 0
BBX 12 19 2 0
BITMAP
0060
00F0
01E0
03C0
0780
0F00
1E00
3C00
7800
F000
7800
3C00
1E00
0F00
0780
03C0
01E0
00F0
0060
ENDCHAR
STARTCHAR equal
ENCODING 61
SWIDTH 667 0
DWIDTH 16 0
BBX 14 9 0 5
BITMAP
FFFC
FFFC
FFFC
0000
0000
0000
FFFC
FFFC
FFFC
ENDCHAR
STARTCHAR greater
ENCODING 62
SWIDTH 667 0
DWIDTH 16 0
BBX 12 19 2 0
BITMAP
6000
F000
7800
3C00
1E00
0F00
0780
03C0
01E0
00F0
01E0
03C0
0780
0F00
1E00
3C00
7800
F000
6000
ENDCHAR
STARTCHAR question
ENCODING 63
SWIDTH 667 0
DWIDTH 16 0
BBX 14 19 0 0
BITMAP
0FC0
3FF0
7FF8
7038
E01C
E01C
001C
003C
0078
00F0
01E0
03C0
0780
0700
0000
0000
0700
0700
0700
ENDCHAR
STARTCHAR at
ENCODING 64
SWIDTH 667 0
DWIDTH 16 0
BBX 14 19 0 0
BITMAP
0FC0
3FF0
7FF8
7038
E01C
E1FC
E3FC
E7FC
E71C
E71C
E71C
E7FC
E3F8
E1F0
E000
7000
7FFC
3FFC
0FFC
ENDCHAR
STARTCHAR A
ENCODING 65
SWIDTH 667 0
DWIDTH 16 0
BBX 14 19 0 0
BITMAP
0780
0780
0FC0
0FC0
1CE0
1CE0
3870
3870
7038
7038
E01C
FFFC
FFFC
FFFC
E01C
E01C
E01C
E01C
E01C
ENDCHAR
STARTCHAR B
ENCODING 66
SWIDTH 667 0
DWIDTH 16 0
BBX 14 19 0 0
BITMAP
FFC0
FFF0
FFF8
E038
E01C
E01C
E01C
E078
FFF0
FFE0
FFF0
E078
E01C
E01C
E01C
E038
FFF8
FFF0
FFC0
ENDCHAR
STARTCHAR C
ENCODING 67
SWIDTH 667 0
DWIDTH 16 0
BBX 14 19 0 0
BITMAP
0FC0
3FF0
7FF8
7038
E01C
E01C
E000
E000
E000
E000
E000
E000
E000
E01C
E01C
7038
7FF8
3FF0
0FC0
ENDCHAR
STARTCHAR D
ENCODING 68
SWIDTH 667 0
DWIDTH 16 0
BBX 14 19 0 0
BITMAP
FFC0
FFF0
FFF8
E038
E01C
E01C
E01C
E01C
E01C
E01C
E01C
E01C
E01C
E01C
E01C
E038
FFF8
FFF0
FFC0
ENDCHAR
STARTCHAR E
ENCODING 69
SWIDTH 667 0
DWIDTH 16 0
BBX 14 19 0 0
BITMAP
FFFC
FFFC
FFFC
E000
E000
E000
E000
E000
FFE0
FFE0
FFE0
E000
E000
E000
E000
E000
FFFC
FFFC
FFFC
ENDCHAR
STARTCHAR F
ENCODING 70
SWIDTH 667 0
DWIDTH 16 0
BBX 14 19 0 0
BITMAP
FFFC
FFFC
FFFC
E000
E000
E000
E000
E000
FFE0
FFE0
FFE0
E000
E000
E000
E000
E000
E000
E000
E000
ENDCHAR
STARTCHAR G
ENCODING 71
SWIDTH 667 0
DWIDTH 16 0
BBX 14 19 0 0
BITMAP
0FC0
3FF0
7FF8
7038
E01C
E01C
E000
E000
E0FC
E0FC
E0FC
E01C
E01C
E01C
E01C
7038
7FF8
3FF0
0FC0
ENDCHAR
STARTCHAR H
ENCODING 72
SWIDTH 667 0
DWIDTH 16 0
BBX 14 19 0 0
BITMAP
E01C
E01C
E01C
E01C
E01C
E01C
E01C
E01C
FFFC
FFFC
FFFC
E01C
E01C
E01C
E01C
E01C
E01C
E01C
E01C
ENDCHAR
STARTCHAR I
ENCODING 73
SWIDTH 667 0
DWIDTH 16 0
BBX 13 19 0 0
BITMAP
FFF8
FFF8
FFF8
0700
0700
0700
0700
0700
0700
0700
0700
0700
0700
0700
0700
0700
FFF8
FFF8
FFF8
ENDCHAR
STARTCHAR J
ENCODING 74
SWIDTH 667 0
DWIDTH 16 0
BBX 14 19 0 0
BITMAP
001C
001C
001C
001C
001C
001C
001C
001C
001C
001C
001C
E01C
E01C
E01C
E01C
7038
7FF8
3FF0
0FC0
ENDCHAR
STARTCHAR K
ENCODING 75
SWIDTH 667 0
DWIDTH 16 0
BBX 13 19 0 0
BITMAP
E038
E078
E0F0
E1E0
E3C0
E780
EF00
FE00
FC00
F800
FC00
FE00
EF00
E780
E3C0
E1E0
E0F0
E078
E038
ENDCHAR
STARTCHAR L
ENCODING 76
SWIDTH 667 0
DWIDTH 16 0
BBX 14 19 0 0
BITMAP
E000
E000
E000
E000
E000
E000
E000
E000
E000
E000
E000
E000
E000
E000
E000
E000
FFFC
FFFC
FFFC
ENDCHAR
STARTCHAR M
ENCODING 77
SWIDTH 667 0
DWIDTH 16 0
BBX 15 19 0 0
BITMAP
E00E
F01E
F83E
FC7E
FEFE
FFFE
EFEE
E7CE
E38E
E38E
E38E
E00E
E00E
E00E
E00E
E00E
E00E
E00E
E00E
ENDCHAR
STARTCHAR N
ENCODING 78
SWIDTH 667 0
DWIDTH 16 0
BBX 14 19 0 0
BITMAP
E01C
F01C
F81C
FC1C
FE1C
EF1C
E79C
E3DC
E1FC
E0FC
E07C
E03C
E01C
E01C
E01C
E01C
E01C
E01C
E01C
ENDCHAR
STARTCHAR O
ENCODING 79
SWIDTH 667 0
DWIDTH 16 0
BBX 14 19 0 0
BITMAP
0FC0
3FF0
7FF8
7038
E01C
E01C
E01C
E01C
E01C
E01C
E01C
E01C
E01C
E01C
E01C
7038
7FF8
3FF0
0FC0
ENDCHAR
STARTCHAR P
ENCODING 80
SWIDTH 667 0
DWIDTH 16 0
BBX 14 19 0 0
BITMAP
FFC0
FFF0
FFF8
E038
E01C
E01C
E01C
E038
FFF8
FFF0
FFC0
E000
E000
E000
E000
E000
E000
E000
E000
ENDCHAR
STARTCHAR Q
ENCODING 81
SWIDTH 667 0
DWIDTH 16 0
BBX 14 22 0 -3
BITMAP
0FC0
3FF0
7FF8
7038
E01C
E01C
E01C
E01C
E01C
E01C
E01C
E01C
E01C
E61C
EF1C
77F8
7FF8
3FF0
0FF0
0078
003C
0018
ENDCHAR
STARTCHAR R
ENCODING 82
SWIDTH 667 0
DWIDTH 16 0
BBX 14 19 0 0
BITMAP
FFC0
FFF0
FFF8
E038
E01C
E01C
E01C
E078
FFF0
FFE0
FFF0
E078
E01C
E01C
E01C
E01C
E01C
E01C
E01C
ENDCHAR
STARTCHAR S
ENCODING 83
SWIDTH 667 0
DWIDTH 16 0
BBX 14 19 0 0
BITMAP
0FC0
3FF0
7FF8
7038
E01C
E01C
E000
7000
7FC0
3FF0
0FF8
0038
001C
E01C
E01C
7038
7FF8
3FF0
0FC0
ENDCHAR
STARTCHAR T
ENCODING 84
SWIDTH 667 0
DWIDTH 16 0
BBX 13 19 0 0
BITMAP
FFF8
FFF8
FFF8
0700
0700
0700
0700
0700
0700
0700
0700
0700
0700
0700
0700
0700
0700
0700
0700
ENDCHAR
STARTCHAR U
ENCODING 85
SWIDTH 667 0
DWIDTH 16 0
BBX 14 19 0 0
BITMAP
E01C
E01C
E01C
E01C
E01C
E01C
E01C
E01C
E01C
E01C
E01C
E01C
E01C
E01C
E01C
7038
7FF8
3FF0
0FC0
ENDCHAR
STARTCHAR V
ENCODING 86
SWIDTH 667 0
DWIDTH 16 0
BBX 14 19 0 0
BITMAP
E01C
E01C
E01C
E01C
E01C
E01C
E01C
7038
7038
3870
3870
1CE0
1CE0
0FC0
0FC0
0780
0780
0300
0300
ENDCHAR
STARTCHAR W
ENCODING 87
SWIDTH 667 0
DWIDTH 16 0
BBX 15 19 0 0
BITMAP
E00E
E00E
E00E
E00E
E00E
E00E
E00E
E00E
E38E
E38E
E38E
E38E
E7CE
EFEE
FEFE
FC7E
F83E
F01E
E00E
ENDCHAR
STARTCHAR X
ENCODING 88
SWIDTH 667 0
DWIDTH 16 0
BBX 14 19 0 0
BITMAP
E01C
E01C
E01C
E01C
F03C
7878
3CF0
1FE0
0FC0
0780
0FC0
1FE0
3CF0
7878
F03C
E01C
E01C
E01C
E01C
ENDCHAR
STARTCHAR Y
ENCODING 89
SWIDTH 667 0
DWIDTH 16 0
BBX 13 19 0 0
BITMAP
E038
E038
E038
E038
E038
E038
E038
F078
78F0
3DE0
1FC0
0F80
0700
0700
0700
0700
0700
0700
0700
ENDCHAR
STARTCHAR Z
ENCODING 90
SWIDTH 667 0
DWIDTH 16 0
BBX 14 19 0 0
BITMAP
FFFC
FFFC
FFFC
001C
003C
0078
00F0
01E0
03C0
0780
0F00
1E00
3C00
7800
F000
E000
FFFC
FFFC
FFFC
ENDCHAR
STARTCHAR bracketleft
ENCODING 91
SWIDTH 667 0
DWIDTH 16 0
BBX 6 25 5 -3
BITMAP
FC
FC
FC
E0
E0
E0
E0
E0
E0
E0
E0
E0
E0
E0
E0
E0
E0
E0
E0
E0
E0
E0
FC
FC
FC
ENDCHAR
STARTCHAR backslash
ENCODING 92
SWIDTH 667 0
DWIDTH 16 0
BBX 15 26 1 -5
BITMAP
E000
E000
7000
7000
3800
3800
1C00
1C00
0E00
0E00
0700
0700
0380
0380
01C0
01C0
00E0
00E0
0070
0070
0038
0038
001C
001C
000E
000E
ENDCHAR
STARTCHAR bracketright
ENCODING 93
SWIDTH 667 0
DWIDTH 16 0
BBX 6 25 2 -3
BITMAP
FC
FC
FC
1C
1C
1C
1C
1C
1C
1C
1C
1C
1C
1C
1C
1C
1C
1C
1C
1C
1C
1C
FC
FC
FC
ENDCHAR
STARTCHAR asciicircum
ENCODING 94
SWIDTH 667 0
DWIDTH 16 0
BBX 14 8 0 11
BITMAP
0300
0780
0FC0
1FE0
3CF0
7878
F03C
6018
ENDCHAR
STARTCHAR underscore
ENCODING 95
SWIDTH 667 0
DWIDTH 16 0
BBX 16 3 0 -5
BITMAP
FFFF
FFFF
FFFF
ENDCHAR
STARTCHAR grave
ENCODING 96
SWIDTH 667 0
DWIDTH 16 0
BBX 10 9 2 13
BITMAP
6000
F000
7800
3C00
1E00
0F00
0780
03C0
0180
ENDCHAR
STARTCHAR a
ENCODING 97
SWIDTH 667 0
DWIDTH 16 0
BBX 14 14 0 0
BITMAP
0FFC
3FFC
7FFC
701C
E01C
E01C
E01C
E01C
E03C
E07C
71FC
7FDC
3F9C
0E1C
ENDCHAR
STARTCHAR b
ENCODING 98
SWIDTH 667 0
DWIDTH 16 0
BBX 14 19 0 0
BITMAP
E000
E000
E000
E000
E000
FFC0
FFF0
FFF8
E038
E01C
E01C
E01C
E01C
E01C
E01C
E038
FFF8
FFF0
FFC0
ENDCHAR
STARTCHAR c
ENCODING 99
SWIDTH 667 0
DWIDTH 16 0
BBX 14 14 0 0
BITMAP
0FC0
3FF0
7FF8
7038
E01C
E01C
E000
E000
E000
E000
7000
7FFC
3FFC
0FFC
ENDCHAR
STARTCHAR d
ENCODING 100
SWIDTH 667 0
DWIDTH 16 0
BBX 14 19 0 0
BITMAP
001C
001C
001C
001C
001C
0FFC
3FFC
7FFC
701C
E01C
E01C
E01C
E01C
E01C
E01C
701C
7FFC
3FFC
0FFC
ENDCHAR
STARTCHAR e
ENCODING 101
SWIDTH 667 0
DWIDTH 16 0
BBX 14 14 0 0
BITMAP
0FC0
3FF0
7FF8
7038
E01C
E01C
FFFC
FFFC
FFFC
E000
7000
7FFC
3FFC
0FFC
ENDCHAR
STARTCHAR f
ENCODING 102
SWIDTH 667 0
DWIDTH 16 0
BBX 11 19 2 0
BITMAP
01E0
07E0
0FE0
0E00
1C00
FF80
FF80
FF80
1C00
1C00
1C00
1C00
1C00
1C00
1C00
1C00
1C00
1C00
1C00
ENDCHAR
STARTCHAR g
ENCODING 103
SWIDTH 667 0
DWIDTH 16 0
BBX 14 19 0 -5
BITMAP
0FFC
3FFC
7FFC
701C
E01C
E01C
E01C
E01C
E01C
E01C
701C
7FFC
3FFC
0FFC
001C
0038
1FF8
1FF0
1FC0
ENDCHAR
STARTCHAR h
ENCODING 104
SWIDTH 667 0
DWIDTH 16 0
BBX 14 19 0 0
BITMAP
E000
E000
E000
E000
E000
FFC0
FFF0
FFF8
E038
E01C
E01C
E01C
E01C
E01C
E01C
E01C
E01C
E01C
E01C
ENDCHAR
STARTCHAR i
ENCODING 105
SWIDTH 667 0
DWIDTH 16 0
BBX 9 19 2 0
BITMAP
1C00
1C00
1C00
0000
0000
FC00
FC00
FC00
1C00
1C00
1C00
1C00
1C00
1C00
1C00
1C00
FF80
FF80
FF80
ENDCHAR
STARTCHAR j
ENCODING 106
SWIDTH 667 0
DWIDTH 16 0
BBX 8 24 0 -5
BITMAP
07
07
07
00
00
3F
3F
3F
07
07
07
07
07
07
07
07
07
07
07
07
0E
FE
FC
F0
ENDCHAR
STARTCHAR k
ENCODING 107
SWIDTH 667 0
DWIDTH 16 0
BBX 14 19 0 0
BITMAP
E000
E000
E000
E000
E000
E078
E0F0
E1E0
E3C0
E780
EF00
FF00
FF80
FBC0
F1E0
E0F0
E078
E03C
E01C
ENDCHAR
STARTCHAR l
ENCODING 108
SWIDTH 667 0
DWIDTH 16 0
BBX 9 19 2 0
BITMAP
FC00
FC00
FC00
1C00
1C00
1C00
1C00
1C00
1C00
1C00
1C00
1C00
1C00
1C00
1C00
1C00
FF80
FF80
FF80
ENDCHAR
STARTCHAR m
ENCODING 109
SWIDTH 667 0
DWIDTH 16 0
BBX 15 14 0 0
BITMAP
FFE0
FFF8
FFFC
E39C
E38E
E38E
E38E
E38E
E38E
E38E
E38E
E38E
E38E
E38E
ENDCHAR
STARTCHAR n
ENCODING 110
SWIDTH 667 0
DWIDTH 16 0
BBX 14 14 0 0
BITMAP
E1C0
E7F0
EFF8
FE38
F81C
F01C
E01C
E01C
E01C
E01C
E01C
E01C
E01C
E01C
ENDCHAR
STARTCHAR o
ENCODING 111
SWIDTH 667 0
DWIDTH 16 0
BBX 14 14 0 0
BITMAP
0FC0
3FF0
7FF8
7038
E01C
E01C
E01C
E01C
E01C
E01C
7038
7FF8
3FF0
0FC0
ENDCHAR
STARTCHAR p
ENCODING 112
SWIDTH 667 0
DWIDTH 16 0
BBX 14 19 0 -5
BITMAP
FFC0
FFF0
FFF8
E038
E01C
E01C
E01C
E01C
E01C
E01C
E038
FFF8
FFF0
FFC0
E000
E000
E000
E000
E000
ENDCHAR
STARTCHAR q
ENCODING 113
SWIDTH 667 0
DWIDTH 16 0
BBX 14 19 0 -5
BITMAP
0FFC
3FFC
7FFC
701C
E01C
E01C
E01C
E01C
E01C
E01C
701C
7FFC
3FFC
0FFC
001C
001C
001C
001C
001C
ENDCHAR
STARTCHAR r
ENCODING 114
SWIDTH 667 0
DWIDTH 16 0
BBX 14 14 0 0
BITMAP
E1C0
E7F0
EFF8
FE38
F81C
F01C
E000
E000
E000
E000
E000
E000
E000
E000
ENDCHAR
STARTCHAR s
ENCODING 115
SWIDTH 667 0
DWIDTH 16 0
BBX 14 14 0 0
BITMAP
0FFC
3FFC
7FFC
F000
E000
FFC0
7FF0
1FF8
003C
001C
003C
FFF8
FFF0
FFC0
ENDCHAR
STARTCHAR t
ENCODING 116
SWIDTH 667 0
DWIDTH 16 0
BBX 11 19 2 0
BITMAP
1C00
1C00
1C00
1C00
1C00
FF80
FF80
FF80
1C00
1C00
1C00
1C00
1C00
1C00
1C00
0E00
0FE0
07E0
01E0
ENDCHAR
STARTCHAR u
ENCODING 117
SWIDTH 667 0
DWIDTH 16 0
BBX 14 14 0 0
BITMAP
E01C
E01C
E01C
E01C
E01C
E01C
E01C
E01C
E03C
E07C
71FC
7FDC
3F9C
0E1C
ENDCHAR
STARTCHAR v
ENCODING 118
SWIDTH 667 0
DWIDTH 16 0
BBX 14 14 0 0
BITMAP
E01C
E01C
E01C
E01C
E01C
7038
7038
3870
3870
1CE0
1CE0
0FC0
0FC0
0780
ENDCHAR
STARTCHAR w
ENCODING 119
SWIDTH 667 0
DWIDTH 16 0
BBX 15 14 0 0
BITMAP
E38E
E38E
E38E
E38E
E38E
E38E
E38E
E38E
E38E
E38E
F7DE
7FFC
7EFC
1C70
ENDCHAR
STARTCHAR x
ENCODING 120
SWIDTH 667 0
DWIDTH 16 0
BBX 14 14 0 0
BITMAP
E01C
E01C
F03C
7878
3CF0
1FE0
0FC0
0FC0
1FE0
3CF0
7878
F03C
E01C
E01C
ENDCHAR
STARTCHAR y
ENCODING 121
SWIDTH 667 0
DWIDTH 16 0
BBX 14 19 0 -5
BITMAP
E01C
E01C
E01C
E01C
E01C
E01C
E01C
E01C
E01C
E01C
701C
7FFC
3FFC
0FFC
001C
0038
1FF8
1FF0
1FC0
ENDCHAR
STARTCHAR z
ENCODING 122
SWIDTH 667 0
DWIDTH 16 0
BBX 13 14 0 0
BITMAP
FFF8
FFF8
FFF8
00F0
01E0
03C0
0780
0F00
1E00
3C00
7800
FFF8
FFF8
FFF8
ENDCHAR
STARTCHAR braceleft
ENCODING 123
SWIDTH 667 0
DWIDTH 16 0
BBX 9 29 3 -5
BITMAP
0380
0F80
0F80
1E00
1C00
1C00
1C00
1C00
1C00
1C00
1C00
1C00
3C00
F800
F000
F800
3C00
1C00
1C00
1C00
1C00
1C00
1C00
1C00
1C00
1E00
0F80
0F80
0380
ENDCHAR
STARTCHAR bar
ENCODING 124
SWIDTH 667 0
DWIDTH 16 0
BBX 3 25 5 -3
BITMAP
E0
E0
E0
E0
E0
E0
E0
E0
E0
E0
E0
E0
E0
E0
E0
E0
E0
E0
E0
E0
E0
E0
E0
E0
E0
ENDCHAR
STARTCHAR braceright
ENCODING 125
SWIDTH 667 0
DWIDTH 16 0
BBX 9 29 2 -5
BITMAP
E000
F800
F800
3C00
1C00
1C00
1C00
1C00
1C00
1C00
1C00
1C00
1E00
0F80
0780
0F80
1E00
1C00
1C00
1C00
1C00
1C00
1C00
1C00
1C00
3C00
F800
F800
E000
ENDCHAR
STARTCHAR asciitilde
ENCODING 126
SWIDTH 667 0
DWIDTH 16 0
BBX 13 5 0 8
BITMAP
3C38
7F38
FFF8
E7F0
E1E0
ENDCHAR
STARTCHAR char007f
ENCODING 127
SWIDTH 0 0
DWIDTH 0 0
BBX 0 0 0 -5
BITMAP
ENDCHAR
STARTCHAR Adieresis
ENCODING 128
SWIDTH 667 0
DWIDTH 16 0
BBX 14 24 0 0
BITMAP
3870
3870
3870
0000
0000
0780
0780
0FC0
0FC0
1CE0
1CE0
3870
3870
7038
7038
E01C
FFFC
FFFC
FFFC
E01C
E01C
E01C
E01C
E01C
ENDCHAR
STARTCHAR Aring
ENCODING 129
SWIDTH 667 0
DWIDTH 16 0
BBX 14 24 0 0
BITMAP
0780
0FC0
1CE0
1860
1CE0
0FC0
0780
0FC0
0FC0
1CE0
1CE0
3870
3870
7038
7038
E01C
FFFC
FFFC
FFFC
E01C
E01C
E01C
E01C
E01C
ENDCHAR
STARTCHAR Ccedilla
ENCODING 130
SWIDTH 667 0
DWIDTH 16 0
BBX 14 24 0 -5
BITMAP
0FC0
3FF0
7FF8
7038
E01C
E01C
E000
E000
E000
E000
E000
E000
E000
E01C
E01C
7038
7FF8
3FF0
0FC0
0700
0F00
1E00
3C00
1800
ENDCHAR
STARTCHAR Eacute
ENCODING 131
SWIDTH 667 0
DWIDTH 16 0
BBX 14 24 0 0
BITMAP
0060
00F0
01E0
03C0
0780
FFFC
FFFC
FFFC
E000
E000
E000
E000
E000
FFE0
FFE0
FFE0
E000
E000
E000
E000
E000
FFFC
FFFC
FFFC
ENDCHAR
STARTCHAR Ntilde
ENCODING 132
SWIDTH 667 0
DWIDTH 16 0
BBX 14 24 0 0
BITMAP
3C38
7F38
FFF8
E7F0
E1E0
E01C
F01C
F81C
FC1C
FE1C
EF1C
E79C
E3DC
E1FC
E0FC
E07C
E03C
E01C
E01C
E01C
E01C
E01C
E01C
E01C
ENDCHAR
STARTCHAR Odieresis
ENCODING 133
SWIDTH 667 0
DWIDTH 16 0
BBX 14 24 0 0
BITMAP
3870
3870
3870
0000
0000
0FC0
3FF0
7FF8
7038
E01C
E01C
E01C
E01C
E01C
E01C
E01C
E01C
E01C
E01C
E01C
7038
7FF8
3FF0
0FC0
ENDCHAR
STARTCHAR Udieresis
ENCODING 134
SWIDTH 667 0
DWIDTH 16 0
BBX 14 24 0 0
BITMAP
3870
3870
3870
0000
0000
E01C
E01C
E01C
E01C
E01C
E01C
E01C
E01C
E01C
E01C
E01C
E01C
E01C
E01C
E01C
7038
7FF8
3FF0
0FC0
ENDCHAR
STARTCHAR aacute
ENCODING 135
SWIDTH 667 0
DWIDTH 16 0
BBX 14 22 0 0
BITMAP
0060
00F0
01E0
03C0
0780
0300
0000
0000
0FFC
3FFC
7FFC
701C
E01C
E01C
E01C
E01C
E03C
E07C
71FC
7FDC
3F9C
0E1C
ENDCHAR
STARTCHAR agrave
ENCODING 136
SWIDTH 667 0
DWIDTH 16 0
BBX 14 22 0 0
BITMAP
0600
0F00
0780
03C0
01E0
00C0
0000
0000
0FFC
3FFC
7FFC
701C
E01C
E01C
E01C
E01C
E03C
E07C
71FC
7FDC
3F9C
0E1C
ENDCHAR
STARTCHAR acircumflex
ENCODING 137
SWIDTH 667 0
DWIDTH 16 0
BBX 14 22 0 0
BITMAP
0300
0780
0FC0
1FE0
3CF0
1860
0000
0000
0FFC
3FFC
7FFC
701C
E01C
E01C
E01C
E01C
E03C
E07C
71FC
7FDC
3F9C
0E1C
ENDCHAR
STARTCHAR adieresis
ENCODING 138
SWIDTH 667 0
DWIDTH 16 0
BBX 14 19 0 0
BITMAP
3870
3870
3870
0000
0000
0FFC
3FFC
7FFC
701C
E01C
E01C
E01C
E01C
E03C
E07C
71FC
7FDC
3F9C
0E1C
ENDCHAR
STARTCHAR atilde
ENCODING 139
SWIDTH 667 0
DWIDTH 16 0
BBX 14 21 0 0
BITMAP
3C38
7F38
FFF8
E7F0
E1E0
0000
0000
0FFC
3FFC
7FFC
701C
E01C
E01C
E01C
E01C
E03C
E07C
71FC
7FDC
3F9C
0E1C
ENDCHAR
STARTCHAR aring
ENCODING 140
SWIDTH 667 0
DWIDTH 16 0
BBX 14 21 0 0
BITMAP
07C0
0FE0
0C60
0C60
0C60
0FE0
07C0
1FFC
3FFC
7FFC
701C
E01C
E01C
E01C
E01C
E03C
E07C
71FC
7FDC
3F9C
0E1C
ENDCHAR
STARTCHAR ccedilla
ENCODING 141
SWIDTH 667 0
DWIDTH 16 0
BBX 14 19 0 -5
BITMAP
0FC0
3FF0
7FF8
7038
E01C
E01C
E000
E000
E000
E000
7000
7FFC
3FFC
0FFC
0700
0F00
1E00
3C00
1800
ENDCHAR
STARTCHAR eacute
ENCODING 142
SWIDTH 667 0
DWIDTH 16 0
BBX 14 22 0 0
BITMAP
0060
00F0
01E0
03C0
0780
0300
0000
0000
0FC0
3FF0
7FF8
7038
E01C
E01C
FFFC
FFFC
FFFC
E000
7000
7FFC
3FFC
0FFC
ENDCHAR
STARTCHAR egrave
ENCODING 143
SWIDTH 667 0
DWIDTH 16 0
BBX 14 22 0 0
BITMAP
1800
3C00
1E00
0F00
0780
0300
0000
0000
0FC0
3FF0
7FF8
7038
E01C
E01C
FFFC
FFFC
FFFC
E000
7000
7FFC
3FFC
0FFC
ENDCHAR
STARTCHAR ecircumflex
ENCODING 144
SWIDTH 667 0
DWIDTH 16 0
BBX 14 22 0 0
BITMAP
0300
0780
0FC0
1FE0
3CF0
1860
0000
0000
0FC0
3FF0
7FF8
7038
E01C
E01C
FFFC
FFFC
FFFC
E000
7000
7FFC
3FFC
0FFC
ENDCHAR
STARTCHAR edieresis
ENCODING 145
SWIDTH 667 0
DWIDTH 16 0
BBX 14 19 0 0
BITMAP
3870
3870
3870
0000
0000
0FC0
3FF0
7FF8
7038
E01C
E01C
FFFC
FFFC
FFFC
E000
7000
7FFC
3FFC
0FFC
ENDCHAR
STARTCHAR iacute
ENCODING 146
SWIDTH 667 0
DWIDTH 16 0
BBX 9 22 2 0
BITMAP
0300
0780
0F00
1E00
3C00
1800
0000
0000
FC00
FC00
FC00
1C00
1C00
1C00
1C00
1C00
1C00
1C00
1C00
FF80
FF80
FF80
ENDCHAR
STARTCHAR igrave
ENCODING 147
SWIDTH 667 0
DWIDTH 16 0
BBX 9 22 2 0
BITMAP
6000
F000
7800
3C00
1E00
0C00
0000
0000
FC00
FC00
FC00
1C00
1C00
1C00
1C00
1C00
1C00
1C00
1C00
FF80
FF80
FF80
ENDCHAR
STARTCHAR icircumflex
ENCODING 148
SWIDTH 667 0
DWIDTH 16 0
BBX 10 22 2 0
BITMAP
0C00
1E00
3F00
7F80
F3C0
6180
0000
0000
FC00
FC00
FC00
1C00
1C00
1C00
1C00
1C00
1C00
1C00
1C00
FF80
FF80
FF80
ENDCHAR
STARTCHAR idieresis
ENCODING 149
SWIDTH 667 0
DWIDTH 16 0
BBX 9 19 2 0
BITMAP
E380
E380
E380
0000
0000
FC00
FC00
FC00
1C00
1C00
1C00
1C00
1C00
1C00
1C00
1C00
FF80
FF80
FF80
ENDCHAR
STARTCHAR ntilde
ENCODING 150
SWIDTH 667 0
DWIDTH 16 0
BBX 14 21 0 0
BITMAP
3C38
7F38
FFF8
E7F0
E1E0
0000
0000
E1C0
E7F0
EFF8
FE38
F81C
F01C
E01C
E01C
E01C
E01C
E01C
E01C
E01C
E01C
ENDCHAR
STARTCHAR oacute
ENCODING 151
SWIDTH 667 0
DWIDTH 16 0
BBX 14 22 0 0
BITMAP
0060
00F0
01E0
03C0
0780
0300
0000
0000
0FC0
3FF0
7FF8
7038
E01C
E01C
E01C
E01C
E01C
E01C
7038
7FF8
3FF0
0FC0
ENDCHAR
STARTCHAR ograve
ENCODING 152
SWIDTH 667 0
DWIDTH 16 0
BBX 14 22 0 0
BITMAP
1800
3C00
1E00
0F00
0780
0300
0000
0000
0FC0
3FF0
7FF8
7038
E01C
E01C
E01C
E01C
E01C
E01C
7038
7FF8
3FF0
0FC0
ENDCHAR
STARTCHAR ocircumflex
ENCODING 153
SWIDTH 667 0
DWIDTH 16 0
BBX 14 22 0 0
BITMAP
0300
0780
0FC0
1FE0
3CF0
1860
0000
0000
0FC0
3FF0
7FF8
7038
E01C
E01C
E01C
E01C
E01C
E01C
7038
7FF8
3FF0
0FC0
ENDCHAR
STARTCHAR odieresis
ENCODING 154
SWIDTH 667 0
DWIDTH 16 0
BBX 14 19 0 0
BITMAP
3870
3870
3870
0000
0000
0FC0
3FF0
7FF8
7038
E01C
E01C
E01C
E01C
E01C
E01C
7038
7FF8
3FF0
0FC0
ENDCHAR
STARTCHAR otilde
ENCODING 155
SWIDTH 667 0
DWIDTH 16 0
BBX 14 21 0 0
BITMAP
3C38
7F38
FFF8
E7F0
E1E0
0000
0000
0FC0
3FF0
7FF8
7038
E01C
E01C
E01C
E01C
E01C
E01C
7038
7FF8
3FF0
0FC0
ENDCHAR
STARTCHAR uacute
ENCODING 156
SWIDTH 667 0
DWIDTH 16 0
BBX 14 22 0 0
BITMAP
0060
00F0
01E0
03C0
0780
0300
0000
0000
E01C
E01C
E01C
E01C
E01C
E01C
E01C
E01C
E03C
E07C
71FC
7FDC
3F9C
0E1C
ENDCHAR
STARTCHAR ugrave
ENCODING 157
SWIDTH 667 0
DWIDTH 16 0
BBX 14 22 0 0
BITMAP
1800
3C00
1E00
0F00
0780
0300
0000
0000
E01C
E01C
E01C
E01C
E01C
E01C
E01C
E01C
E03C
E07C
71FC
7FDC
3F9C
0E1C
ENDCHAR
STARTCHAR ucircumflex
ENCODING 158
SWIDTH 667 0
DWIDTH 16 0
BBX 14 22 0 0
BITMAP
0300
0780
0FC0
1FE0
3CF0
1860
0000
0000
E01C
E01C
E01C
E01C
E01C
E01C
E01C
E01C
E03C
E07C
71FC
7FDC
3F9C
0E1C
ENDCHAR
STARTCHAR udieresis
ENCODING 159
SWIDTH 667 0
DWIDTH 16 0
BBX 14 19 0 0
BITMAP
3870
3870
3870
0000
0000
E01C
E01C
E01C
E01C
E01C
E01C
E01C
E01C
E03C
E07C
71FC
7FDC
3F9C
0E1C
ENDCHAR
STARTCHAR dagger
ENCODING 160
SWIDTH 667 0
DWIDTH 16 0
BBX 9 14 2 5
BITMAP
1C00
1C00
1C00
FF80
FF80
FF80
1C00
1C00
1C00
1C00
1C00
1C00
1C00
1C00
ENDCHAR
STARTCHAR degree
ENCODING 161
SWIDTH 667 0
DWIDTH 16 0
BBX 12 12 2 10
BITMAP
0F00
3FC0
7FE0
70E0
E070
E070
E070
E070
70E0
7FE0
3FC0
0F00
ENDCHAR
STARTCHAR cent
ENCODING 162
SWIDTH 667 0
DWIDTH 16 0
BBX 13 20 0 -3
BITMAP
0700
0700
0700
0F80
3FE0
7FF0
7770
E738
E738
E700
E700
E700
E700
7700
7FF8
3FF8
0FF8
0700
0700
0700
ENDCHAR
STARTCHAR sterling
ENCODING 163
SWIDTH 667 0
DWIDTH 16 0
BBX 13 22 0 0
BITMAP
0E00
3F80
7F80
71C0
E0E0
E0E0
E000
E000
FF00
FF00
FF00
E000
E000
E000
E000
E000
E038
E038
E070
FFF0
FFE0
FF80
ENDCHAR
STARTCHAR section
ENCODING 164
SWIDTH 667 0
DWIDTH 16 0
BBX 14 27 0 -3
BITMAP
0FC0
3FF0
3FF8
7038
701C
781C
3C1C
1E1C
EF00
E780
E3C0
E1E0
F0F0
7878
3C3C
1E1C
0F1C
079C
03DC
E1E0
E0F0
E078
E038
7038
7FF0
3FF0
0F80
ENDCHAR
STARTCHAR bullet
ENCODING 165
SWIDTH 667 0
DWIDTH 16 0
BBX 13 13 0 3
BITMAP
0F80
3FE0
7FF0
7FF0
FFF8
FFF8
FFF8
FFF8
FFF8
7FF0
7FF0
3FE0
0F80
ENDCHAR
STARTCHAR paragraph
ENCODING 166
SWIDTH 667 0
DWIDTH 16 0
BBX 14 22 0 0
BITMAP
07FC
1FFC
3FFC
7F1C
771C
E71C
E71C
E71C
E71C
771C
7F1C
3FFC
1FFC
07FC
071C
071C
071C
071C
071C
071C
071C
071C
ENDCHAR
STARTCHAR germandbls
ENCODING 167
SWIDTH 667 0
DWIDTH 16 0
BBX 13 25 0 -3
BITMAP
03C0
07E0
0FF0
1E78
3C38
7838
F038
E038
E070
E0E0
E0E0
E0E0
E0E0
E070
E038
E038
E038
E038
E078
E3F0
E3E0
E3C0
E000
E000
E000
ENDCHAR
STARTCHAR registered
ENCODING 168
SWIDTH 667 0
DWIDTH 16 0
BBX 14 17 0 2
BITMAP
1C00
FF80
FFE0
C1F0
0070
F838
FE38
FE18
E71C
E71C
E71C
FE18
FE38
FE38
EFF0
E7F0
E3C0
ENDCHAR
STARTCHAR copyright
ENCODING 169
SWIDTH 667 0
DWIDTH 16 0
BBX 14 19 0 0
BITMAP
1C00
FF80
FFE0
C1F0
0070
1F38
7F38
7F18
E01C
E01C
E01C
7F18
7F38
1F38
0070
C1F0
FFE0
FF80
1C00
ENDCHAR
STARTCHAR trademark
ENCODING 170
SWIDTH 667 0
DWIDTH 16 0
BBX 15 8 0 11
BITMAP
FFCE
FFFE
FFFE
39FE
39FE
39CE
39CE
39CE
ENDCHAR
STARTCHAR acute
ENCODING 171
SWIDTH 667 0
DWIDTH 16 0
BBX 7 6 5 13
BITMAP
0C
1E
3C
78
F0
60
ENDCHAR
STARTCHAR dieresis
ENCODING 172
SWIDTH 667 0
DWIDTH 16 0
BBX 9 3 2 16
BITMAP
E380
E380
E380
ENDCHAR
STARTCHAR notequal
ENCODING 173
SWIDTH 667 0
DWIDTH 16 0
BBX 14 15 0 2
BITMAP
0060
00F0
01E0
FFFC
FFFC
FFFC
03C0
0780
0F00
FFFC
FFFC
FFFC
1E00
3C00
1800
ENDCHAR
STARTCHAR AE
ENCODING 174
SWIDTH 667 0
DWIDTH 16 0
BBX 14 19 0 0
BITMAP
0FFC
3FFC
7FFC
7700
E700
E700
E700
E700
FFE0
FFE0
FFE0
E700
E700
E700
E700
E700
E7FC
E7FC
E7FC
ENDCHAR
STARTCHAR Oslash
ENCODING 175
SWIDTH 667 0
DWIDTH 16 0
BBX 14 19 0 0
BITMAP
0FC0
3FF0
7FF8
7038
E03C
E07C
E0FC
E1FC
E3DC
E79C
EF1C
FE1C
FC1C
F81C
F01C
7038
7FF8
3FF0
0FC0
ENDCHAR
STARTCHAR infinity
ENCODING 176
SWIDTH 667 0
DWIDTH 16 0
BBX 15 9 0 5
BITMAP
1C70
7FFC
7FFC
E38E
E38E
E38E
7FFC
7FFC
1C70
ENDCHAR
STARTCHAR plusminus
ENCODING 177
SWIDTH 667 0
DWIDTH 16 0
BBX 13 16 0 0
BITMAP
0700
0700
0700
0700
0700
FFF8
FFF8
FFF8
0700
0700
0700
0700
0700
FFF8
FFF8
FFF8
ENDCHAR
STARTCHAR lessequal
ENCODING 178
SWIDTH 667 0
DWIDTH 16 0
BBX 9 19 2 0
BITMAP
0300
0780
0F00
1E00
3C00
7800
F000
F000
7800
3C00
1E00
0F00
0780
0300
0000
0000
FF80
FF80
FF80
ENDCHAR
STARTCHAR greaterequal
ENCODING 179
SWIDTH 667 0
DWIDTH 16 0
BBX 9 19 5 0
BITMAP
6000
F000
7800
3C00
1E00
0F00
0780
0780
0F00
1E00
3C00
7800
F000
6000
0000
0000
FF80
FF80
FF80
ENDCHAR
STARTCHAR yen
ENCODING 180
SWIDTH 667 0
DWIDTH 16 0
BBX 15 19 0 0
BITMAP
600C
F01E
783C
3C78
1EF0
7FFC
7FFC
7FFC
0380
0380
0380
7FFC
7FFC
7FFC
0380
0380
0380
0380
0380
ENDCHAR
STARTCHAR mu
ENCODING 181
SWIDTH 667 0
DWIDTH 16 0
BBX 14 18 0 -5
BITMAP
E0E0
E0E0
E0E0
E0E0
E0E0
E0E0
E0E0
E0E0
E0E0
E1F0
FFFC
FFBC
FE0C
E000
E000
E000
E000
E000
ENDCHAR
STARTCHAR partialdiff
ENCODING 182
SWIDTH 667 0
DWIDTH 16 0
BBX 12 19 2 0
BITMAP
0C00
1E00
0F00
0780
03C0
01E0
03F0
07F0
0F70
1E70
3C70
7870
F070
E070
E070
F0E0
7FE0
3FC0
0F00
ENDCHAR
STARTCHAR summation
ENCODING 183
SWIDTH 667 0
DWIDTH 16 0
BBX 14 19 0 0
BITMAP
FFFC
FFFC
7FFC
3C1C
1E1C
0F1C
0780
03C0
01E0
00F0
01E0
03C0
0780
0F1C
1E1C
3C1C
7FFC
FFFC
FFFC
ENDCHAR
STARTCHAR product
ENCODING 184
SWIDTH 667 0
DWIDTH 16 0
BBX 13 19 0 0
BITMAP
FFF8
FFF8
FFF8
38E0
38E0
38E0
38E0
38E0
38E0
38E0
38E0
38E0
38E0
38E0
38E0
38E0
38E0
38E0
38E0
ENDCHAR
STARTCHAR pi
ENCODING 185
SWIDTH 667 0
DWIDTH 16 0
BBX 13 14 0 0
BITMAP
FFF8
FFF8
FFF8
38E0
38E0
38E0
38E0
38E0
38E0
38E0
38E0
38E0
38E0
38E0
ENDCHAR
STARTCHAR integral
ENCODING 186
SWIDTH 667 0
DWIDTH 16 0
BBX 13 29 0 -5
BITMAP
0078
01F8
03F8
0380
0700
0700
0700
0700
0700
0700
0700
0700
0700
0700
0700
0700
0700
0700
0700
0700
0700
0700
0700
0700
0700
0E00
FE00
FC00
F000
ENDCHAR
STARTCHAR ordfeminine
ENCODING 187
SWIDTH 667 0
DWIDTH 16 0
BBX 12 16 2 8
BITMAP
0FF0
3FF0
7FF0
7070
E070
E070
E070
7070
7FF0
3FF0
0FF0
0000
0000
FFF0
FFF0
FFF0
ENDCHAR
STARTCHAR ordmasculine
ENCODING 188
SWIDTH 667 0
DWIDTH 16 0
BBX 11 16 3 8
BITMAP
0E00
3F80
7FC0
71C0
E0E0
E0E0
E0E0
71C0
7FC0
3F80
0E00
0000
0000
FFE0
FFE0
FFE0
ENDCHAR
STARTCHAR Omega
ENCODING 189
SWIDTH 667 0
DWIDTH 16 0
BBX 13 19 0 0
BITMAP
0F80
3FE0
7FF0
7070
E038
E038
E038
E038
E038
E038
E038
7070
7070
38E0
38E0
38E0
F8F8
F078
E038
ENDCHAR
STARTCHAR ae
ENCODING 190
SWIDTH 667 0
DWIDTH 16 0
BBX 14 14 0 0
BITMAP
0FC0
3FF0
7FF8
7778
E73C
E71C
E7FC
E7FC
E7FC
E700
7700
7FFC
3FFC
0FFC
ENDCHAR
STARTCHAR oslash
ENCODING 191
SWIDTH 667 0
DWIDTH 16 0
BBX 14 14 0 0
BITMAP
0FC0
3FF0
7FF8
7078
E0FC
E1DC
E39C
E71C
EE1C
FC1C
7838
7FF8
3FF0
0FC0
ENDCHAR
STARTCHAR questiondown
ENCODING 192
SWIDTH 667 0
DWIDTH 16 0
BBX 14 19 0 0
BITMAP
0380
0380
0380
0000
0000
0380
0780
0F00
1E00
3C00
7800
F000
E000
E01C
E01C
7038
7FF8
3FF0
0FC0
ENDCHAR
STARTCHAR exclamdown
ENCODING 193
SWIDTH 667 0
DWIDTH 16 0
BBX 3 19 8 0
BITMAP
E0
E0
E0
00
00
E0
E0
E0
E0
E0
E0
E0
E0
E0
E0
E0
E0
E0
E0
ENDCHAR
STARTCHAR logicalnot
ENCODING 194
SWIDTH 667 0
DWIDTH 16 0
BBX 14 8 0 3
BITMAP
FFFC
FFFC
FFFC
001C
001C
001C
001C
001C
ENDCHAR
STARTCHAR radical
ENCODING 195
SWIDTH 667 0
DWIDTH 16 0
BBX 13 16 0 0
BITMAP
0078
00F8
00F8
01E0
01C0
03C0
0380
6780
E700
FF00
7E00
7E00
3C00
3C00
1800
1800
ENDCHAR
STARTCHAR florin
ENCODING 196
SWIDTH 667 0
DWIDTH 16 0
BBX 13 29 0 -5
BITMAP
0078
01F8
03F8
0380
0700
0700
0700
0700
0700
0700
1FC0
1FC0
1FC0
0700
0700
0700
0700
0700
0700
0700
0700
0700
0700
0700
0700
0E00
FE00
FC00
F000
ENDCHAR
STARTCHAR approxequal
ENCODING 197
SWIDTH 667 0
DWIDTH 16 0
BBX 14 13 0 3
BITMAP
001C
003C
0FF8
3FF8
7FE0
F000
E01C
003C
1FF8
7FF8
7FE0
F000
E000
ENDCHAR
STARTCHAR Delta
ENCODING 198
SWIDTH 667 0
DWIDTH 16 0
BBX 14 16 0 0
BITMAP
0300
0300
0780
0780
0FC0
0FC0
1CE0
1CE0
3870
3870
7038
7038
E01C
FFFC
FFFC
FFFC
ENDCHAR
STARTCHAR guillemotleft
ENCODING 199
SWIDTH 667 0
DWIDTH 16 0
BBX 13 13 0 -1
BITMAP
3030
3838
7070
7070
E0E0
E0E0
E0E0
E0E0
E0E0
7070
7070
3838
3030
ENDCHAR
STARTCHAR guillemotright
ENCODING 200
SWIDTH 667 0
DWIDTH 16 0
BBX 13 13 0 -1
BITMAP
6060
E0E0
7070
7070
3838
3838
3838
3838
3838
7070
7070
E0E0
6060
ENDCHAR
STARTCHAR ellipsis
ENCODING 201
SWIDTH 667 0
DWIDTH 16 0
BBX 15 3 0 0
BITMAP
E38E
E38E
E38E
ENDCHAR
STARTCHAR nbspace
ENCODING 202
SWIDTH 667 0
DWIDTH 16 0
BBX 0 0 0 -5
BITMAP
ENDCHAR
STARTCHAR Agrave
ENCODING 203
SWIDTH 667 0
DWIDTH 16 0
BBX 14 24 0 0
BITMAP
1800
3C00
1E00
0F00
0780
0780
0780
0FC0
0FC0
1CE0
1CE0
3870
3870
7038
7038
E01C
FFFC
FFFC
FFFC
E01C
E01C
E01C
E01C
E01C
ENDCHAR
STARTCHAR Atilde
ENCODING 204
SWIDTH 667 0
DWIDTH 16 0
BBX 14 24 0 0
BITMAP
3C38
7F38
FFF8
E7F0
E1E0
0780
0780
0FC0
0FC0
1CE0
1CE0
3870
3870
7038
7038
E01C
FFFC
FFFC
FFFC
E01C
E01C
E01C
E01C
E01C
ENDCHAR
STARTCHAR Otilde
ENCODING 205
SWIDTH 667 0
DWIDTH 16 0
BBX 14 24 0 0
BITMAP
3C38
7F38
FFF8
E7F0
E1E0
0FC0
3FF0
7FF8
7038
E01C
E01C
E01C
E01C
E01C
E01C
E01C
E01C
E01C
E01C
E01C
7038
7FF8
3FF0
0FC0
ENDCHAR
STARTCHAR OE
ENCODING 206
SWIDTH 667 0
DWIDTH 16 0
BBX 14 19 0 0
BITMAP
0FFC
3FFC
7FFC
7700
E700
E700
E700
E700
E7E0
E7E0
E7E0
E700
E700
E700
E700
7700
7FFC
3FFC
0FFC
ENDCHAR
STARTCHAR oe
ENCODING 207
SWIDTH 667 0
DWIDTH 16 0
BBX 14 14 0 0
BITMAP
3CF0
7FF8
7FF8
E71C
E71C
E71C
E7FC
E7FC
E7FC
E700
E700
7FFC
7FFC
3CFC
ENDCHAR
STARTCHAR endash
ENCODING 208
SWIDTH 667 0
DWIDTH 16 0
BBX 8 3 3 8
BITMAP
FF
FF
FF
ENDCHAR
STARTCHAR emdash
ENCODING 209
SWIDTH 667 0
DWIDTH 16 0
BBX 16 3 0 8
BITMAP
FFFF
FFFF
FFFF
ENDCHAR
STARTCHAR quotedblleft
ENCODING 210
SWIDTH 667 0
DWIDTH 16 0
BBX 11 8 2 11
BITMAP
30C0
79E0
F3C0
E380
E380
E380
E380
E380
ENDCHAR
STARTCHAR quotedblright
ENCODING 211
SWIDTH 667 0
DWIDTH 16 0
BBX 11 8 3 11
BITMAP
38E0
38E0
38E0
38E0
38E0
79E0
F3C0
6180
ENDCHAR
STARTCHAR quoteleft
ENCODING 212
SWIDTH 667 0
DWIDTH 16 0
BBX 5 8 5 11
BITMAP
30
78
F0
E0
E0
E0
E0
E0
ENDCHAR
STARTCHAR quoteright
ENCODING 213
SWIDTH 667 0
DWIDTH 16 0
BBX 5 8 6 11
BITMAP
38
38
38
38
38
78
F0
60
ENDCHAR
STARTCHAR divide
ENCODING 214
SWIDTH 667 0
DWIDTH 16 0
BBX 13 14 0 2
BITMAP
0700
0700
0700
0000
0000
FFF8
FFF8
FFF8
0000
0000
0000
0700
0700
0700
ENDCHAR
STARTCHAR lozenge
ENCODING 215
SWIDTH 667 0
DWIDTH 16 0
BBX 15 15 0 2
BITMAP
0100
0380
07C0
0FE0
1EF0
3C78
783C
F01E
783C
3C78
1EF0
0FE0
07C0
0380
0100
ENDCHAR
STARTCHAR ydieresis
ENCODING 216
SWIDTH 667 0
DWIDTH 16 0
BBX 14 24 0 -5
BITMAP
3870
3870
3870
0000
0000
E01C
E01C
E01C
E01C
E01C
E01C
E01C
E01C
E01C
E01C
701C
7FFC
3FFC
1FFC
001C
0038
1FF8
1FF0
1FE0
ENDCHAR
STARTCHAR Ydieresis
ENCODING 217
SWIDTH 667 0
DWIDTH 16 0
BBX 13 24 0 0
BITMAP
38E0
38E0
38E0
0000
0000
E038
E038
E038
E038
E038
E038
E038
F078
78F0
3DE0
1FC0
0F80
0700
0700
0700
0700
0700
0700
0700
ENDCHAR
STARTCHAR fraction
ENCODING 218
SWIDTH 667 0
DWIDTH 16 0
BBX 11 10 0 3
BITMAP
00C0
01E0
03C0
0780
0F00
1E00
3C00
7800
F000
6000
ENDCHAR
STARTCHAR currency
ENCODING 219
SWIDTH 667 0
DWIDTH 16 0
BBX 13 13 0 0
BITMAP
4010
E038
7070
3FE0
1FC0
1DC0
18C0
1DC0
1FC0
3FE0
7070
E038
4010
ENDCHAR
STARTCHAR guilsinglleft
ENCODING 220
SWIDTH 667 0
DWIDTH 16 0
BBX 5 13 0 -1
BITMAP
30
38
70
70
E0
E0
E0
E0
E0
70
70
38
30
ENDCHAR
STARTCHAR guilsinglright
ENCODING 221
SWIDTH 667 0
DWIDTH 16 0
BBX 5 13 0 -1
BITMAP
60
E0
70
70
38
38
38
38
38
78
70
E0
60
ENDCHAR
STARTCHAR fi
ENCODING 222
SWIDTH 667 0
DWIDTH 16 0
BBX 16 19 0 0
BITMAP
03E0
0FE0
1FE0
3C00
3800
FFFC
FFFC
FFFC
381C
381C
381C
381C
381C
381C
381C
381C
387F
387F
387F
ENDCHAR
STARTCHAR fl
ENCODING 223
SWIDTH 667 0
DWIDTH 16 0
BBX 16 19 0 0
BITMAP
03FC
0FFC
1FFC
3C1C
381C
FE1C
FE1C
FE1C
381C
381C
381C
381C
381C
381C
381C
381C
387F
387F
387F
ENDCHAR
STARTCHAR daggerdbl
ENCODING 224
SWIDTH 667 0
DWIDTH 16 0
BBX 9 14 2 5
BITMAP
1C00
1C00
1C00
FF80
FF80
FF80
1C00
1C00
FF80
FF80
FF80
1C00
1C00
1C00
ENDCHAR
STARTCHAR periodcentered
ENCODING 225
SWIDTH 667 0
DWIDTH 16 0
BBX 5 5 5 6
BITMAP
70
F8
F8
F8
70
ENDCHAR
STARTCHAR quotesinglbase
ENCODING 226
SWIDTH 667 0
DWIDTH 16 0
BBX 5 8 0 -3
BITMAP
38
38
38
38
38
78
F0
60
ENDCHAR
STARTCHAR quotedblbase
ENCODING 227
SWIDTH 667 0
DWIDTH 16 0
BBX 11 8 0 -3
BITMAP
38E0
38E0
38E0
38E0
38E0
79E0
F3C0
6180
ENDCHAR
STARTCHAR perthousand
ENCODING 228
SWIDTH 667 0
DWIDTH 16 0
BBX 15 22 0 0
BITMAP
1FFE
3FFE
7FFE
771E
E33C
E378
E3F0
F7E0
7FC0
7F80
3F00
0F38
3FFC
7FFC
FDEE
F8C6
D8C6
98C6
1DEE
0FFC
0FFC
0738
ENDCHAR
STARTCHAR Acircumflex
ENCODING 229
SWIDTH 667 0
DWIDTH 16 0
BBX 14 24 0 0
BITMAP
0300
0780
0FC0
1FE0
1CE0
0B40
0780
0FC0
0FC0
1CE0
1CE0
3870
3870
7038
7038
E01C
FFFC
FFFC
FFFC
E01C
E01C
E01C
E01C
E01C
ENDCHAR
STARTCHAR Ecircumflex
ENCODING 230
SWIDTH 667 0
DWIDTH 16 0
BBX 14 24 0 0
BITMAP
0300
0780
0FC0
1FE0
1CE0
FFFC
FFFC
FFFC
E000
E000
E000
E000
E000
FFE0
FFE0
FFE0
E000
E000
E000
E000
E000
FFFC
FFFC
FFFC
ENDCHAR
STARTCHAR Aacute
ENCODING 231
SWIDTH 667 0
DWIDTH 16 0
BBX 14 24 0 0
BITMAP
0060
00F0
01E0
03C0
0780
0780
0780
0FC0
0FC0
1CE0
1CE0
3870
3870
7038
7038
E01C
FFFC
FFFC
FFFC
E01C
E01C
E01C
E01C
E01C
ENDCHAR
STARTCHAR Edieresis
ENCODING 232
SWIDTH 667 0
DWIDTH 16 0
BBX 14 24 0 0
BITMAP
3870
3870
3870
0000
0000
FFFC
FFFC
FFFC
E000
E000
E000
E000
E000
FFE0
FFE0
FFE0
E000
E000
E000
E000
E000
FFFC
FFFC
FFFC
ENDCHAR
STARTCHAR Egrave
ENCODING 233
SWIDTH 667 0
DWIDTH 16 0
BBX 14 24 0 0
BITMAP
1800
3C00
1E00
0F00
0780
FFFC
FFFC
FFFC
E000
E000
E000
E000
E000
FFE0
FFE0
FFE0
E000
E000
E000
E000
E000
FFFC
FFFC
FFFC
ENDCHAR
STARTCHAR Iacute
ENCODING 234
SWIDTH 667 0
DWIDTH 16 0
BBX 13 24 0 0
BITMAP
00C0
01E0
03C0
0780
0700
FFF8
FFF8
FFF8
0700
0700
0700
0700
0700
0700
0700
0700
0700
0700
0700
0700
0700
FFF8
FFF8
FFF8
ENDCHAR
STARTCHAR Icircumflex
ENCODING 235
SWIDTH 667 0
DWIDTH 16 0
BBX 13 24 0 0
BITMAP
0200
0700
0F80
1FC0
38E0
FFF8
FFF8
FFF8
0700
0700
0700
0700
0700
0700
0700
0700
0700
0700
0700
0700
0700
FFF8
FFF8
FFF8
ENDCHAR
STARTCHAR Idieresis
ENCODING 236
SWIDTH 667 0
DWIDTH 16 0
BBX 13 24 0 0
BITMAP
38E0
38E0
38E0
0000
0000
FFF8
FFF8
FFF8
0700
0700
0700
0700
0700
0700
0700
0700
0700
0700
0700
0700
0700
FFF8
FFF8
FFF8
ENDCHAR
STARTCHAR Igrave
ENCODING 237
SWIDTH 667 0
DWIDTH 16 0
BBX 13 24 0 0
BITMAP
1800
3C00
1E00
0F00
0700
FFF8
FFF8
FFF8
0700
0700
0700
0700
0700
0700
0700
0700
0700
0700
0700
0700
0700
FFF8
FFF8
FFF8
ENDCHAR
STARTCHAR Oacute
ENCODING 238
SWIDTH 667 0
DWIDTH 16 0
BBX 14 24 0 0
BITMAP
00C0
01E0
03C0
0780
0700
0FC0
3FF0
7FF8
7038
E01C
E01C
E01C
E01C
E01C
E01C
E01C
E01C
E01C
E01C
E01C
7038
7FF8
3FF0
0FC0
ENDCHAR
STARTCHAR Ocircumflex
ENCODING 239
SWIDTH 667 0
DWIDTH 16 0
BBX 14 24 0 0
BITMAP
0300
0780
0FC0
1FE0
3CF0
1860
0FC0
3FF0
7FF8
7038
E01C
E01C
E01C
E01C
E01C
E01C
E01C
E01C
E01C
E01C
7038
7FF8
3FF0
0FC0
ENDCHAR
STARTCHAR apple
ENCODING 240
SWIDTH 667 0
DWIDTH 16 0
BBX 15 23 0 0
BITMAP
0020
0060
00C0
00C0
0080
1E70
3FFC
7FFC
7FF8
7FF8
FFF8
FFF0
FFF0
FFF8
7FF8
7FFC
7FFE
7FFE
3FFC
3FFC
1FF8
1FF0
0C60
ENDCHAR
STARTCHAR Ograve
ENCODING 241
SWIDTH 667 0
DWIDTH 16 0
BBX 14 24 0 0
BITMAP
0C00
1E00
0F00
0780
0380
0FC0
3FF0
7FF8
7038
E01C
E01C
E01C
E01C
E01C
E01C
E01C
E01C
E01C
E01C
E01C
7038
7FF8
3FF0
0FC0
ENDCHAR
STARTCHAR Uacute
ENCODING 242
SWIDTH 667 0
DWIDTH 16 0
BBX 14 24 0 0
BITMAP
0060
00F0
01E0
03C0
0780
E31C
E01C
E01C
E01C
E01C
E01C
E01C
E01C
E01C
E01C
E01C
E01C
E01C
E01C
E01C
7038
7FF8
3FF0
0FC0
ENDCHAR
STARTCHAR Ucircumflex
ENCODING 243
SWIDTH 667 0
DWIDTH 16 0
BBX 14 24 0 0
BITMAP
0300
0780
0FC0
1FE0
3CF0
1860
0000
E01C
E01C
E01C
E01C
E01C
E01C
E01C
E01C
E01C
E01C
E01C
E01C
E01C
7038
7FF8
3FF0
0FC0
ENDCHAR
STARTCHAR Ugrave
ENCODING 244
SWIDTH 667 0
DWIDTH 16 0
BBX 14 24 0 0
BITMAP
1800
3C00
1E00
0F00
0780
E31C
E01C
E01C
E01C
E01C
E01C
E01C
E01C
E01C
E01C
E01C
E01C
E01C
E01C
E01C
7038
7FF8
3FF0
0FC0
ENDCHAR
STARTCHAR dotlessi
ENCODING 245
SWIDTH 667 0
DWIDTH 16 0
BBX 9 14 2 0
BITMAP
FC00
FC00
FC00
1C00
1C00
1C00
1C00
1C00
1C00
1C00
1C00
FF80
FF80
FF80
ENDCHAR
STARTCHAR circumflex
ENCODING 246
SWIDTH 667 0
DWIDTH 16 0
BBX 10 6 2 16
BITMAP
0C00
1E00
3F00
7F80
F3C0
6180
ENDCHAR
STARTCHAR tilde
ENCODING 247
SWIDTH 667 0
DWIDTH 16 0
BBX 13 5 0 16
BITMAP
3C38
7F38
FFF8
E7F0
E1E0
ENDCHAR
STARTCHAR macron
ENCODING 248
SWIDTH 667 0
DWIDTH 16 0
BBX 8 3 3 16
BITMAP
FF
FF
FF
ENDCHAR
STARTCHAR breve
ENCODING 249
SWIDTH 667 0
DWIDTH 16 0
BBX 11 6 3 16
BITMAP
E0E0
E0E0
F1E0
7FC0
3F80
1F00
ENDCHAR
STARTCHAR dotaccent
ENCODING 250
SWIDTH 667 0
DWIDTH 16 0
BBX 5 5 5 14
BITMAP
70
F8
F8
F8
70
ENDCHAR
STARTCHAR ring
ENCODING 251
SWIDTH 667 0
DWIDTH 16 0
BBX 7 7 3 14
BITMAP
7C
FE
C6
C6
C6
FE
7C
ENDCHAR
STARTCHAR cedilla
ENCODING 252
SWIDTH 667 0
DWIDTH 16 0
BBX 5 8 3 -5
BITMAP
F8
F8
F8
38
38
78
F0
60
ENDCHAR
STARTCHAR hungarumlaut
ENCODING 253
SWIDTH 667 0
DWIDTH 16 0
BBX 15 6 0 16
BITMAP
0C0C
1E1E
3C3C
7878
F0F0
6060
ENDCHAR
STARTCHAR ogonek
ENCODING 254
SWIDTH 667 0
DWIDTH 16 0
BBX 5 8 3 -5
BITMAP
F8
F8
F8
E0
E0
F0
78
30
ENDCHAR
STARTCHAR caron
ENCODING 255
SWIDTH 667 0
DWIDTH 16 0
BBX 10 6 2 16
BITMAP
6180
F3C0
7F80
3F00
1E00
0C00
ENDCHAR
ENDFONT
