STARTFONT 2.1
FONT -Fondu-ProFont-Medium-R-Normal--18-170-75-75-P-119-MacRoman-1
SIZE 17 75 75
FONTBOUNDINGBOX 12 22 0 -4
COMMENT Created by Fondu from a mac NFNT/FONT resource
STARTPROPERTIES 17
FOUNDRY "Fondu"
FAMILY_NAME "ProFont"
WEIGHT_NAME "Medium"
SLANT "R"
SETWIDTH_NAME "Normal"
ADD_STYLE_NAME ""
PIXEL_SIZE 18
POINT_SIZE 170
RESOLUTION_X 75
RESOLUTION_Y 75
SPACING "P"
AVERAGE_WIDTH 119
CHARSET_REGISTRY "MacRoman"
CHARSET_ENCODING "1"
FONT_ASCENT 18
FONT_DESCENT 4
FACE_NAME "ProFont 18"
ENDPROPERTIES
CHARS 228
STARTCHAR char0011
ENCODING 17
SWIDTH 667 0
DWIDTH 12 0
BBX 10 10 0 2
BITMAP
3300
7F80
CCC0
CCC0
7F80
7F80
CCC0
CCC0
7F80
3300
ENDCHAR
STARTCHAR char0012
ENCODING 18
SWIDTH 667 0
DWIDTH 12 0
BBX 11 16 0 0
BITMAP
0060
00E0
00C0
01C0
0180
0380
0300
0700
0600
4E00
EC00
FC00
7800
3800
3000
1000
ENDCHAR
STARTCHAR char0013
ENCODING 19
SWIDTH 667 0
DWIDTH 12 0
BBX 11 11 0 2
BITMAP
0400
0E00
1F00
3F80
7FC0
FFE0
7FC0
3F80
1F00
0E00
0400
ENDCHAR
STARTCHAR char0014
ENCODING 20
SWIDTH 667 0
DWIDTH 12 0
BBX 11 17 0 0
BITMAP
0100
0300
0300
0200
39C0
7FE0
7FC0
FF80
FF80
FFC0
FFC0
7FE0
7FE0
7FE0
3FC0
3FC0
1980
ENDCHAR
STARTCHAR space
ENCODING 32
SWIDTH 667 0
DWIDTH 12 0
BBX 0 0 0 -4
BITMAP
ENDCHAR
STARTCHAR exclam
ENCODING 33
SWIDTH 667 0
DWIDTH 12 0
BBX 2 14 4 0
BITMAP
C0
C0
C0
C0
C0
C0
C0
C0
C0
C0
00
00
C0
C0
ENDCHAR
STARTCHAR quotedbl
ENCODING 34
SWIDTH 667 0
DWIDTH 12 0
BBX 6 6 2 10
BITMAP
CC
CC
CC
CC
CC
CC
ENDCHAR
STARTCHAR numbersign
ENCODING 35
SWIDTH 667 0
DWIDTH 12 0
BBX 10 10 0 4
BITMAP
3300
3300
FFC0
FFC0
3300
3300
FFC0
FFC0
3300
3300
ENDCHAR
STARTCHAR dollar
ENCODING 36
SWIDTH 667 0
DWIDTH 12 0
BBX 10 18 0 -2
BITMAP
0C00
0C00
3F00
7F80
EDC0
CCC0
CC00
EC00
7F00
3F80
0DC0
0CC0
CCC0
EDC0
7F80
3F00
0C00
0C00
ENDCHAR
STARTCHAR percent
ENCODING 37
SWIDTH 667 0
DWIDTH 12 0
BBX 10 14 0 0
BITMAP
3FC0
7FC0
CCC0
CDC0
CF80
CF00
7F00
3F80
3CC0
7CC0
ECC0
CCC0
C780
C300
ENDCHAR
STARTCHAR ampersand
ENCODING 38
SWIDTH 667 0
DWIDTH 12 0
BBX 10 14 0 0
BITMAP
3E00
7F00
E300
C700
CE00
FC00
7800
7800
FCC0
CFC0
C780
E780
7FC0
3CC0
ENDCHAR
STARTCHAR quotesingle
ENCODING 39
SWIDTH 667 0
DWIDTH 12 0
BBX 2 6 4 10
BITMAP
C0
C0
C0
C0
C0
C0
ENDCHAR
STARTCHAR parenleft
ENCODING 40
SWIDTH 667 0
DWIDTH 12 0
BBX 6 18 2 -2
BITMAP
0C
1C
38
70
E0
C0
C0
C0
C0
C0
C0
C0
C0
E0
70
38
1C
0C
ENDCHAR
STARTCHAR parenright
ENCODING 41
SWIDTH 667 0
DWIDTH 12 0
BBX 6 18 2 -2
BITMAP
C0
E0
70
38
1C
0C
0C
0C
0C
0C
0C
0C
0C
1C
38
70
E0
C0
ENDCHAR
STARTCHAR asterisk
ENCODING 42
SWIDTH 667 0
DWIDTH 12 0
BBX 10 10 0 4
BITMAP
0C00
0C00
CCC0
FFC0
3F00
3F00
FFC0
CCC0
0C00
0C00
ENDCHAR
STARTCHAR plus
ENCODING 43
SWIDTH 667 0
DWIDTH 12 0
BBX 10 10 0 2
BITMAP
0C00
0C00
0C00
0C00
FFC0
FFC0
0C00
0C00
0C00
0C00
ENDCHAR
STARTCHAR comma
ENCODING 44
SWIDTH 667 0
DWIDTH 12 0
BBX 5 9 2 -4
BITMAP
30
78
78
38
18
38
70
E0
40
ENDCHAR
STARTCHAR hyphen
ENCODING 45
SWIDTH 667 0
DWIDTH 12 0
BBX 10 2 0 6
BITMAP
FFC0
FFC0
ENDCHAR
STARTCHAR period
ENCODING 46
SWIDTH 667 0
DWIDTH 12 0
BBX 4 4 3 1
BITMAP
60
F0
F0
60
ENDCHAR
STARTCHAR slash
ENCODING 47
SWIDTH 667 0
DWIDTH 12 0
BBX 11 20 0 -4
BITMAP
0060
0060
00C0
00C0
0180
0180
0300
0300
0600
0600
0C00
0C00
1800
1800
3000
3000
6000
6000
C000
C000
ENDCHAR
STARTCHAR zero
ENCODING 48
SWIDTH 667 0
DWIDTH 12 0
BBX 10 14 0 0
BITMAP
3F00
7F80
E1C0
C1C0
C3C0
C7C0
CEC0
DCC0
F8C0
F0C0
E0C0
E1C0
7F80
3F00
ENDCHAR
STARTCHAR one
ENCODING 49
SWIDTH 667 0
DWIDTH 12 0
BBX 10 14 0 0
BITMAP
0C00
0C00
7C00
7C00
0C00
0C00
0C00
0C00
0C00
0C00
0C00
0C00
FFC0
FFC0
ENDCHAR
STARTCHAR two
ENCODING 50
SWIDTH 667 0
DWIDTH 12 0
BBX 10 14 0 0
BITMAP
3F00
7F80
E1C0
C0C0
00C0
01C0
0380
0700
0E00
1C00
3800
7000
FFC0
FFC0
ENDCHAR
STARTCHAR three
ENCODING 51
SWIDTH 667 0
DWIDTH 12 0
BBX 10 14 0 0
BITMAP
3F00
7F80
E1C0
C0C0
00C0
0180
0F00
0F80
01C0
00C0
C0C0
E1C0
7F80
3F00
ENDCHAR
STARTCHAR four
ENCODING 52
SWIDTH 667 0
DWIDTH 12 0
BBX 10 14 0 0
BITMAP
0300
0700
0F00
1F00
3B00
7300
E300
C300
FFC0
FFC0
0300
0300
0FC0
0FC0
ENDCHAR
STARTCHAR five
ENCODING 53
SWIDTH 667 0
DWIDTH 12 0
BBX 10 14 0 0
BITMAP
FFC0
FFC0
C000
C000
FF00
FF80
01C0
00C0
00C0
00C0
C0C0
E1C0
7F80
3F00
ENDCHAR
STARTCHAR six
ENCODING 54
SWIDTH 667 0
DWIDTH 12 0
BBX 10 14 0 0
BITMAP
3F00
7F00
E000
C000
FF00
FF80
C1C0
C0C0
C0C0
C0C0
C0C0
E1C0
7F80
3F00
ENDCHAR
STARTCHAR seven
ENCODING 55
SWIDTH 667 0
DWIDTH 12 0
BBX 10 14 0 0
BITMAP
FFC0
FFC0
00C0
00C0
00C0
01C0
0380
0700
0E00
0C00
0C00
0C00
0C00
0C00
ENDCHAR
STARTCHAR eight
ENCODING 56
SWIDTH 667 0
DWIDTH 12 0
BBX 10 14 0 0
BITMAP
3F00
7F80
E1C0
C0C0
C0C0
6180
3F00
7F80
E1C0
C0C0
C0C0
E1C0
7F80
3F00
ENDCHAR
STARTCHAR nine
ENCODING 57
SWIDTH 667 0
DWIDTH 12 0
BBX 10 14 0 0
BITMAP
3F00
7F80
E1C0
C0C0
C0C0
C0C0
C0C0
E0C0
7FC0
3FC0
00C0
01C0
3F80
3F00
ENDCHAR
STARTCHAR colon
ENCODING 58
SWIDTH 667 0
DWIDTH 12 0
BBX 4 10 3 1
BITMAP
60
F0
F0
60
00
00
60
F0
F0
60
ENDCHAR
STARTCHAR semicolon
ENCODING 59
SWIDTH 667 0
DWIDTH 12 0
BBX 5 15 2 -4
BITMAP
30
78
78
30
00
00
30
78
78
38
18
38
70
E0
40
ENDCHAR
STARTCHAR less
ENCODING 60
SWIDTH 667 0
DWIDTH 12 0
BBX 8 14 2 0
BITMAP
03
07
0E
1C
38
70
E0
E0
70
38
1C
0E
07
03
ENDCHAR
STARTCHAR equal
ENCODING 61
SWIDTH 667 0
DWIDTH 12 0
BBX 10 6 0 4
BITMAP
FFC0
FFC0
0000
0000
FFC0
FFC0
ENDCHAR
STARTCHAR greater
ENCODING 62
SWIDTH 667 0
DWIDTH 12 0
BBX 8 14 2 0
BITMAP
C0
E0
70
38
1C
0E
07
07
0E
1C
38
70
E0
C0
ENDCHAR
STARTCHAR question
ENCODING 63
SWIDTH 667 0
DWIDTH 12 0
BBX 10 14 0 0
BITMAP
3F00
7F80
E1C0
C0C0
00C0
01C0
0380
0700
0E00
0C00
0000
0000
0C00
0C00
ENDCHAR
STARTCHAR at
ENCODING 64
SWIDTH 667 0
DWIDTH 12 0
BBX 10 14 0 0
BITMAP
3F00
7F80
E1C0
C0C0
C7C0
CFC0
CCC0
CCC0
CFC0
C780
C000
E000
7FC0
3FC0
ENDCHAR
STARTCHAR A
ENCODING 65
SWIDTH 667 0
DWIDTH 12 0
BBX 10 14 0 0
BITMAP
0C00
1E00
1E00
3300
3300
6180
6180
C0C0
FFC0
FFC0
C0C0
C0C0
C0C0
C0C0
ENDCHAR
STARTCHAR B
ENCODING 66
SWIDTH 667 0
DWIDTH 12 0
BBX 10 14 0 0
BITMAP
FF00
FF80
C1C0
C0C0
C0C0
C180
FF00
FF80
C1C0
C0C0
C0C0
C1C0
FF80
FF00
ENDCHAR
STARTCHAR C
ENCODING 67
SWIDTH 667 0
DWIDTH 12 0
BBX 10 14 0 0
BITMAP
3F00
7F80
E1C0
C0C0
C000
C000
C000
C000
C000
C000
C0C0
E1C0
7F80
3F00
ENDCHAR
STARTCHAR D
ENCODING 68
SWIDTH 667 0
DWIDTH 12 0
BBX 10 14 0 0
BITMAP
FF00
FF80
C1C0
C0C0
C0C0
C0C0
C0C0
C0C0
C0C0
C0C0
C0C0
C1C0
FF80
FF00
ENDCHAR
STARTCHAR E
ENCODING 69
SWIDTH 667 0
DWIDTH 12 0
BBX 10 14 0 0
BITMAP
FFC0
FFC0
C000
C000
C000
C000
FF00
FF00
C000
C000
C000
C000
FFC0
FFC0
ENDCHAR
STARTCHAR F
ENCODING 70
SWIDTH 667 0
DWIDTH 12 0
BBX 10 14 0 0
BITMAP
FFC0
FFC0
C000
C000
C000
C000
FF00
FF00
C000
C000
C000
C000
C000
C000
ENDCHAR
STARTCHAR G
ENCODING 71
SWIDTH 667 0
DWIDTH 12 0
BBX 10 14 0 0
BITMAP
3F00
7F80
E1C0
C0C0
C000
C000
C3C0
C3C0
C0C0
C0C0
C0C0
E1C0
7F80
3F00
ENDCHAR
STARTCHAR H
ENCODING 72
SWIDTH 667 0
DWIDTH 12 0
BBX 10 14 0 0
BITMAP
C0C0
C0C0
C0C0
C0C0
C0C0
C0C0
FFC0
FFC0
C0C0
C0C0
C0C0
C0C0
C0C0
C0C0
ENDCHAR
STARTCHAR I
ENCODING 73
SWIDTH 667 0
DWIDTH 12 0
BBX 10 14 0 0
BITMAP
FFC0
FFC0
0C00
0C00
0C00
0C00
0C00
0C00
0C00
0C00
0C00
0C00
FFC0
FFC0
ENDCHAR
STARTCHAR J
ENCODING 74
SWIDTH 667 0
DWIDTH 12 0
BBX 10 14 0 0
BITMAP
00C0
00C0
00C0
00C0
00C0
00C0
00C0
00C0
C0C0
C0C0
C0C0
E1C0
7F80
3F00
ENDCHAR
STARTCHAR K
ENCODING 75
SWIDTH 667 0
DWIDTH 12 0
BBX 10 14 0 0
BITMAP
C1C0
C380
C700
CE00
DC00
F800
F000
F800
DC00
CE00
C700
C380
C1C0
C0C0
ENDCHAR
STARTCHAR L
ENCODING 76
SWIDTH 667 0
DWIDTH 12 0
BBX 10 14 0 0
BITMAP
C000
C000
C000
C000
C000
C000
C000
C000
C000
C000
C000
C000
FFC0
FFC0
ENDCHAR
STARTCHAR M
ENCODING 77
SWIDTH 667 0
DWIDTH 12 0
BBX 10 14 0 0
BITMAP
C0C0
E1C0
F3C0
FFC0
DEC0
CCC0
CCC0
CCC0
C0C0
C0C0
C0C0
C0C0
C0C0
C0C0
ENDCHAR
STARTCHAR N
ENCODING 78
SWIDTH 667 0
DWIDTH 12 0
BBX 10 14 0 0
BITMAP
C0C0
E0C0
F0C0
F8C0
DCC0
CEC0
C7C0
C3C0
C1C0
C0C0
C0C0
C0C0
C0C0
C0C0
ENDCHAR
STARTCHAR O
ENCODING 79
SWIDTH 667 0
DWIDTH 12 0
BBX 10 14 0 0
BITMAP
3F00
7F80
E1C0
C0C0
C0C0
C0C0
C0C0
C0C0
C0C0
C0C0
C0C0
E1C0
7F80
3F00
ENDCHAR
STARTCHAR P
ENCODING 80
SWIDTH 667 0
DWIDTH 12 0
BBX 10 14 0 0
BITMAP
FF00
FF80
C1C0
C0C0
C0C0
C1C0
FF80
FF00
C000
C000
C000
C000
C000
C000
ENDCHAR
STARTCHAR Q
ENCODING 81
SWIDTH 667 0
DWIDTH 12 0
BBX 10 16 0 -2
BITMAP
3F00
7F80
E1C0
C0C0
C0C0
C0C0
C0C0
C0C0
C0C0
C0C0
CCC0
EFC0
7F80
3F80
01C0
00C0
ENDCHAR
STARTCHAR R
ENCODING 82
SWIDTH 667 0
DWIDTH 12 0
BBX 10 14 0 0
BITMAP
FF00
FF80
C1C0
C0C0
C0C0
C180
FF00
FF80
C1C0
C0C0
C0C0
C0C0
C0C0
C0C0
ENDCHAR
STARTCHAR S
ENCODING 83
SWIDTH 667 0
DWIDTH 12 0
BBX 10 14 0 0
BITMAP
3F00
7F80
E1C0
C0C0
C000
E000
7F00
3F80
01C0
00C0
C0C0
E1C0
7F80
3F00
ENDCHAR
STARTCHAR T
ENCODING 84
SWIDTH 667 0
DWIDTH 12 0
BBX 10 14 0 0
BITMAP
FFC0
FFC0
0C00
0C00
0C00
0C00
0C00
0C00
0C00
0C00
0C00
0C00
0C00
0C00
ENDCHAR
STARTCHAR U
ENCODING 85
SWIDTH 667 0
DWIDTH 12 0
BBX 10 14 0 0
BITMAP
C0C0
C0C0
C0C0
C0C0
C0C0
C0C0
C0C0
C0C0
C0C0
C0C0
C0C0
E1C0
7F80
3F00
ENDCHAR
STARTCHAR V
ENCODING 86
SWIDTH 667 0
DWIDTH 12 0
BBX 10 14 0 0
BITMAP
C0C0
C0C0
C0C0
C0C0
C0C0
C0C0
6180
6180
3300
3300
1E00
1E00
0C00
0C00
ENDCHAR
STARTCHAR W
ENCODING 87
SWIDTH 667 0
DWIDTH 12 0
BBX 10 14 0 0
BITMAP
C0C0
C0C0
C0C0
C0C0
C0C0
C0C0
CCC0
CCC0
CCC0
DEC0
FFC0
F3C0
E1C0
C0C0
ENDCHAR
STARTCHAR X
ENCODING 88
SWIDTH 667 0
DWIDTH 12 0
BBX 10 14 0 0
BITMAP
C0C0
C0C0
C0C0
E1C0
7380
3F00
1E00
1E00
3F00
7380
E1C0
C0C0
C0C0
C0C0
ENDCHAR
STARTCHAR Y
ENCODING 89
SWIDTH 667 0
DWIDTH 12 0
BBX 10 14 0 0
BITMAP
C0C0
C0C0
C0C0
C0C0
C0C0
E1C0
7380
3F00
1E00
0C00
0C00
0C00
0C00
0C00
ENDCHAR
STARTCHAR Z
ENCODING 90
SWIDTH 667 0
DWIDTH 12 0
BBX 10 14 0 0
BITMAP
FFC0
FFC0
00C0
01C0
0380
0700
0E00
1C00
3800
7000
E000
C000
FFC0
FFC0
ENDCHAR
STARTCHAR bracketleft
ENCODING 91
SWIDTH 667 0
DWIDTH 12 0
BBX 4 18 4 -2
BITMAP
F0
F0
C0
C0
C0
C0
C0
C0
C0
C0
C0
C0
C0
C0
C0
C0
F0
F0
ENDCHAR
STARTCHAR backslash
ENCODING 92
SWIDTH 667 0
DWIDTH 12 0
BBX 11 20 1 -4
BITMAP
C000
C000
6000
6000
3000
3000
1800
1800
0C00
0C00
0600
0600
0300
0300
0180
0180
00C0
00C0
0060
0060
ENDCHAR
STARTCHAR bracketright
ENCODING 93
SWIDTH 667 0
DWIDTH 12 0
BBX 4 18 2 -2
BITMAP
F0
F0
30
30
30
30
30
30
30
30
30
30
30
30
30
30
F0
F0
ENDCHAR
STARTCHAR asciicircum
ENCODING 94
SWIDTH 667 0
DWIDTH 12 0
BBX 10 6 0 8
BITMAP
0C00
1E00
3F00
7380
E1C0
4080
ENDCHAR
STARTCHAR underscore
ENCODING 95
SWIDTH 667 0
DWIDTH 12 0
BBX 12 2 0 -4
BITMAP
FFF0
FFF0
ENDCHAR
STARTCHAR grave
ENCODING 96
SWIDTH 667 0
DWIDTH 12 0
BBX 6 6 2 10
BITMAP
C0
E0
70
38
1C
0C
ENDCHAR
STARTCHAR a
ENCODING 97
SWIDTH 667 0
DWIDTH 12 0
BBX 10 10 0 0
BITMAP
3FC0
7FC0
E0C0
C0C0
C0C0
C1C0
C3C0
E7C0
7EC0
3CC0
ENDCHAR
STARTCHAR b
ENCODING 98
SWIDTH 667 0
DWIDTH 12 0
BBX 10 14 0 0
BITMAP
C000
C000
C000
C000
FF00
FF80
C1C0
C0C0
C0C0
C0C0
C0C0
C1C0
FF80
FF00
ENDCHAR
STARTCHAR c
ENCODING 99
SWIDTH 667 0
DWIDTH 12 0
BBX 10 10 0 0
BITMAP
3F00
7F80
E1C0
C0C0
C000
C000
C000
E000
7FC0
3FC0
ENDCHAR
STARTCHAR d
ENCODING 100
SWIDTH 667 0
DWIDTH 12 0
BBX 10 14 0 0
BITMAP
00C0
00C0
00C0
00C0
3FC0
7FC0
E0C0
C0C0
C0C0
C0C0
C0C0
E0C0
7FC0
3FC0
ENDCHAR
STARTCHAR e
ENCODING 101
SWIDTH 667 0
DWIDTH 12 0
BBX 10 10 0 0
BITMAP
3F00
7F80
E1C0
C0C0
FFC0
FFC0
C000
E000
7FC0
3FC0
ENDCHAR
STARTCHAR f
ENCODING 102
SWIDTH 667 0
DWIDTH 12 0
BBX 8 14 2 0
BITMAP
0F
1F
38
30
FC
FC
30
30
30
30
30
30
30
30
ENDCHAR
STARTCHAR g
ENCODING 103
SWIDTH 667 0
DWIDTH 12 0
BBX 10 14 0 -4
BITMAP
3FC0
7FC0
E0C0
C0C0
C0C0
C0C0
C0C0
E0C0
7FC0
3FC0
00C0
01C0
3F80
3F00
ENDCHAR
STARTCHAR h
ENCODING 104
SWIDTH 667 0
DWIDTH 12 0
BBX 10 14 0 0
BITMAP
C000
C000
C000
C000
FF00
FF80
C1C0
C0C0
C0C0
C0C0
C0C0
C0C0
C0C0
C0C0
ENDCHAR
STARTCHAR i
ENCODING 105
SWIDTH 667 0
DWIDTH 12 0
BBX 6 14 2 0
BITMAP
30
30
00
00
F0
F0
30
30
30
30
30
30
FC
FC
ENDCHAR
STARTCHAR j
ENCODING 106
SWIDTH 667 0
DWIDTH 12 0
BBX 6 18 0 -4
BITMAP
0C
0C
00
00
3C
3C
0C
0C
0C
0C
0C
0C
0C
0C
0C
1C
F8
F0
ENDCHAR
STARTCHAR k
ENCODING 107
SWIDTH 667 0
DWIDTH 12 0
BBX 10 14 0 0
BITMAP
C000
C000
C000
C000
C380
C700
CE00
DC00
FC00
FE00
E700
C380
C1C0
C0C0
ENDCHAR
STARTCHAR l
ENCODING 108
SWIDTH 667 0
DWIDTH 12 0
BBX 6 14 2 0
BITMAP
F0
F0
30
30
30
30
30
30
30
30
30
30
FC
FC
ENDCHAR
STARTCHAR m
ENCODING 109
SWIDTH 667 0
DWIDTH 12 0
BBX 10 10 0 0
BITMAP
FF00
FF80
CDC0
CCC0
CCC0
CCC0
CCC0
CCC0
CCC0
CCC0
ENDCHAR
STARTCHAR n
ENCODING 110
SWIDTH 667 0
DWIDTH 12 0
BBX 10 10 0 0
BITMAP
CF00
DF80
F9C0
F0C0
E0C0
C0C0
C0C0
C0C0
C0C0
C0C0
ENDCHAR
STARTCHAR o
ENCODING 111
SWIDTH 667 0
DWIDTH 12 0
BBX 10 10 0 0
BITMAP
3F00
7F80
E1C0
C0C0
C0C0
C0C0
C0C0
E1C0
7F80
3F00
ENDCHAR
STARTCHAR p
ENCODING 112
SWIDTH 667 0
DWIDTH 12 0
BBX 10 14 0 -4
BITMAP
FF00
FF80
C1C0
C0C0
C0C0
C0C0
C0C0
C1C0
FF80
FF00
C000
C000
C000
C000
ENDCHAR
STARTCHAR q
ENCODING 113
SWIDTH 667 0
DWIDTH 12 0
BBX 10 14 0 -4
BITMAP
3FC0
7FC0
E0C0
C0C0
C0C0
C0C0
C0C0
E0C0
7FC0
3FC0
00C0
00C0
00C0
00C0
ENDCHAR
STARTCHAR r
ENCODING 114
SWIDTH 667 0
DWIDTH 12 0
BBX 10 10 0 0
BITMAP
CF00
DF80
F9C0
F0C0
E000
C000
C000
C000
C000
C000
ENDCHAR
STARTCHAR s
ENCODING 115
SWIDTH 667 0
DWIDTH 12 0
BBX 10 10 0 0
BITMAP
3FC0
7FC0
C000
C000
7F00
3F80
00C0
00C0
FF80
FF00
ENDCHAR
STARTCHAR t
ENCODING 116
SWIDTH 667 0
DWIDTH 12 0
BBX 8 14 2 0
BITMAP
30
30
30
30
FC
FC
30
30
30
30
30
38
1F
0F
ENDCHAR
STARTCHAR u
ENCODING 117
SWIDTH 667 0
DWIDTH 12 0
BBX 10 10 0 0
BITMAP
C0C0
C0C0
C0C0
C0C0
C0C0
C1C0
C3C0
E7C0
7EC0
3CC0
ENDCHAR
STARTCHAR v
ENCODING 118
SWIDTH 667 0
DWIDTH 12 0
BBX 10 10 0 0
BITMAP
C0C0
C0C0
C0C0
6180
6180
3380
3300
1E00
1E00
0C00
ENDCHAR
STARTCHAR w
ENCODING 119
SWIDTH 667 0
DWIDTH 12 0
BBX 10 10 0 0
BITMAP
CCC0
CCC0
CCC0
CCC0
CCC0
CCC0
CCC0
CCC0
7F80
3300
ENDCHAR
STARTCHAR x
ENCODING 120
SWIDTH 667 0
DWIDTH 12 0
BBX 10 10 0 0
BITMAP
C0C0
E1C0
7380
3F00
1E00
1E00
3F00
7380
E1C0
C0C0
ENDCHAR
STARTCHAR y
ENCODING 121
SWIDTH 667 0
DWIDTH 12 0
BBX 10 14 0 -4
BITMAP
C0C0
C0C0
C0C0
C0C0
C0C0
C0C0
C0C0
E0C0
7FC0
3FC0
00C0
01C0
3F80
3F00
ENDCHAR
STARTCHAR z
ENCODING 122
SWIDTH 667 0
DWIDTH 12 0
BBX 10 10 0 0
BITMAP
FFC0
FFC0
0380
0700
0E00
1C00
3800
7000
FFC0
FFC0
ENDCHAR
STARTCHAR braceleft
ENCODING 123
SWIDTH 667 0
DWIDTH 12 0
BBX 6 22 2 -4
BITMAP
0C
1C
38
30
30
30
30
30
30
70
E0
E0
70
30
30
30
30
30
30
38
1C
0C
ENDCHAR
STARTCHAR bar
ENCODING 124
SWIDTH 667 0
DWIDTH 12 0
BBX 2 18 4 -2
BITMAP
C0
C0
C0
C0
C0
C0
C0
C0
C0
C0
C0
C0
C0
C0
C0
C0
C0
C0
ENDCHAR
STARTCHAR braceright
ENCODING 125
SWIDTH 667 0
DWIDTH 12 0
BBX 6 22 2 -4
BITMAP
C0
E0
70
30
30
30
30
30
30
38
1C
1C
38
30
30
30
30
30
30
70
E0
C0
ENDCHAR
STARTCHAR asciitilde
ENCODING 126
SWIDTH 667 0
DWIDTH 12 0
BBX 10 4 0 6
BITMAP
30C0
7CC0
CF80
C300
ENDCHAR
STARTCHAR char007f
ENCODING 127
SWIDTH 0 0
DWIDTH 0 0
BBX 0 0 0 -4
BITMAP
ENDCHAR
STARTCHAR Adieresis
ENCODING 128
SWIDTH 667 0
DWIDTH 12 0
BBX 10 18 0 0
BITMAP
3300
3300
0000
0000
0C00
1E00
1E00
3300
3300
6180
6180
C0C0
FFC0
FFC0
C0C0
C0C0
C0C0
C0C0
ENDCHAR
STARTCHAR Aring
ENCODING 129
SWIDTH 667 0
DWIDTH 12 0
BBX 10 18 0 0
BITMAP
0C00
1E00
3300
3300
1E00
1E00
1E00
3300
3300
6180
6180
C0C0
FFC0
FFC0
C0C0
C0C0
C0C0
C0C0
ENDCHAR
STARTCHAR Ccedilla
ENCODING 130
SWIDTH 667 0
DWIDTH 12 0
BBX 10 18 0 -4
BITMAP
3F00
7F80
E1C0
C0C0
C000
C000
C000
C000
C000
C000
C0C0
E1C0
7F80
3F00
0C00
1C00
3800
1000
ENDCHAR
STARTCHAR Eacute
ENCODING 131
SWIDTH 667 0
DWIDTH 12 0
BBX 10 18 0 0
BITMAP
0300
0700
0E00
0C00
FFC0
FFC0
C000
C000
C000
C000
FF00
FF00
C000
C000
C000
C000
FFC0
FFC0
ENDCHAR
STARTCHAR Ntilde
ENCODING 132
SWIDTH 667 0
DWIDTH 12 0
BBX 10 18 0 0
BITMAP
30C0
7CC0
CF80
C300
C0C0
E0C0
F0C0
F8C0
DCC0
CEC0
C7C0
C3C0
C1C0
C0C0
C0C0
C0C0
C0C0
C0C0
ENDCHAR
STARTCHAR Odieresis
ENCODING 133
SWIDTH 667 0
DWIDTH 12 0
BBX 10 18 0 0
BITMAP
3300
3300
0000
0000
3F00
7F80
E1C0
C0C0
C0C0
C0C0
C0C0
C0C0
C0C0
C0C0
C0C0
E1C0
7F80
3F00
ENDCHAR
STARTCHAR Udieresis
ENCODING 134
SWIDTH 667 0
DWIDTH 12 0
BBX 10 18 0 0
BITMAP
3300
3300
0000
0000
C0C0
C0C0
C0C0
C0C0
C0C0
C0C0
C0C0
C0C0
C0C0
C0C0
C0C0
E1C0
7F80
3F00
ENDCHAR
STARTCHAR aacute
ENCODING 135
SWIDTH 667 0
DWIDTH 12 0
BBX 10 16 0 0
BITMAP
0300
0700
0E00
0C00
0000
0000
3FC0
7FC0
E0C0
C0C0
C0C0
C1C0
C3C0
E7C0
7EC0
3CC0
ENDCHAR
STARTCHAR agrave
ENCODING 136
SWIDTH 667 0
DWIDTH 12 0
BBX 10 16 0 0
BITMAP
0C00
0E00
0700
0300
0000
0000
3FC0
7FC0
E0C0
C0C0
C0C0
C1C0
C3C0
E7C0
7EC0
3CC0
ENDCHAR
STARTCHAR acircumflex
ENCODING 137
SWIDTH 667 0
DWIDTH 12 0
BBX 10 16 0 0
BITMAP
0C00
1E00
3F00
3300
0000
0000
3FC0
7FC0
E0C0
C0C0
C0C0
C1C0
C3C0
E7C0
7EC0
3CC0
ENDCHAR
STARTCHAR adieresis
ENCODING 138
SWIDTH 667 0
DWIDTH 12 0
BBX 10 14 0 0
BITMAP
3300
3300
0000
0000
3FC0
7FC0
E0C0
C0C0
C0C0
C1C0
C3C0
E7C0
7EC0
3CC0
ENDCHAR
STARTCHAR atilde
ENCODING 139
SWIDTH 667 0
DWIDTH 12 0
BBX 10 16 0 0
BITMAP
30C0
7CC0
CF80
C300
0000
0000
3FC0
7FC0
E0C0
C0C0
C0C0
C1C0
C3C0
E7C0
7EC0
3CC0
ENDCHAR
STARTCHAR aring
ENCODING 140
SWIDTH 667 0
DWIDTH 12 0
BBX 10 16 0 0
BITMAP
0C00
1E00
3300
3300
1E00
0C00
3FC0
7FC0
E0C0
C0C0
C0C0
C1C0
C3C0
E7C0
7EC0
3CC0
ENDCHAR
STARTCHAR ccedilla
ENCODING 141
SWIDTH 667 0
DWIDTH 12 0
BBX 10 14 0 -4
BITMAP
3F00
7F80
E1C0
C0C0
C000
C000
C000
E000
7FC0
3FC0
0C00
1C00
3800
1000
ENDCHAR
STARTCHAR eacute
ENCODING 142
SWIDTH 667 0
DWIDTH 12 0
BBX 10 16 0 0
BITMAP
0300
0700
0E00
0C00
0000
0000
3F00
7F80
E1C0
C0C0
FFC0
FFC0
C000
E000
7FC0
3FC0
ENDCHAR
STARTCHAR egrave
ENCODING 143
SWIDTH 667 0
DWIDTH 12 0
BBX 10 16 0 0
BITMAP
3000
3800
1C00
0C00
0000
0000
3F00
7F80
E1C0
C0C0
FFC0
FFC0
C000
E000
7FC0
3FC0
ENDCHAR
STARTCHAR ecircumflex
ENCODING 144
SWIDTH 667 0
DWIDTH 12 0
BBX 10 16 0 0
BITMAP
0C00
1E00
3F00
3300
0000
0000
3F00
7F80
E1C0
C0C0
FFC0
FFC0
C000
E000
7FC0
3FC0
ENDCHAR
STARTCHAR edieresis
ENCODING 145
SWIDTH 667 0
DWIDTH 12 0
BBX 10 14 0 0
BITMAP
3300
3300
0000
0000
3F00
7F80
E1C0
C0C0
FFC0
FFC0
C000
E000
7FC0
3FC0
ENDCHAR
STARTCHAR iacute
ENCODING 146
SWIDTH 667 0
DWIDTH 12 0
BBX 6 16 2 0
BITMAP
0C
1C
38
30
00
00
F0
F0
30
30
30
30
30
30
FC
FC
ENDCHAR
STARTCHAR igrave
ENCODING 147
SWIDTH 667 0
DWIDTH 12 0
BBX 6 16 2 0
BITMAP
C0
E0
70
30
00
00
F0
F0
30
30
30
30
30
30
FC
FC
ENDCHAR
STARTCHAR icircumflex
ENCODING 148
SWIDTH 667 0
DWIDTH 12 0
BBX 6 16 2 0
BITMAP
30
78
FC
CC
00
00
F0
F0
30
30
30
30
30
30
FC
FC
ENDCHAR
STARTCHAR idieresis
ENCODING 149
SWIDTH 667 0
DWIDTH 12 0
BBX 6 14 2 0
BITMAP
CC
CC
00
00
F0
F0
30
30
30
30
30
30
FC
FC
ENDCHAR
STARTCHAR ntilde
ENCODING 150
SWIDTH 667 0
DWIDTH 12 0
BBX 10 16 0 0
BITMAP
30C0
7CC0
CF80
C300
0000
0000
CF00
DF80
F9C0
F0C0
E0C0
C0C0
C0C0
C0C0
C0C0
C0C0
ENDCHAR
STARTCHAR oacute
ENCODING 151
SWIDTH 667 0
DWIDTH 12 0
BBX 10 16 0 0
BITMAP
0300
0700
0E00
0C00
0000
0000
3F00
7F80
E1C0
C0C0
C0C0
C0C0
C0C0
E1C0
7F80
3F00
ENDCHAR
STARTCHAR ograve
ENCODING 152
SWIDTH 667 0
DWIDTH 12 0
BBX 10 16 0 0
BITMAP
3000
3800
1C00
0C00
0000
0000
3F00
7F80
E1C0
C0C0
C0C0
C0C0
C0C0
E1C0
7F80
3F00
ENDCHAR
STARTCHAR ocircumflex
ENCODING 153
SWIDTH 667 0
DWIDTH 12 0
BBX 10 16 0 0
BITMAP
0C00
1E00
3F00
3300
0000
0000
3F00
7F80
E1C0
C0C0
C0C0
C0C0
C0C0
E1C0
7F80
3F00
ENDCHAR
STARTCHAR odieresis
ENCODING 154
SWIDTH 667 0
DWIDTH 12 0
BBX 10 14 0 0
BITMAP
3300
3300
0000
0000
3F00
7F80
E1C0
C0C0
C0C0
C0C0
C0C0
E1C0
7F80
3F00
ENDCHAR
STARTCHAR otilde
ENCODING 155
SWIDTH 667 0
DWIDTH 12 0
BBX 10 16 0 0
BITMAP
30C0
7CC0
CF80
C300
0000
0000
3F00
7F80
E1C0
C0C0
C0C0
C0C0
C0C0
E1C0
7F80
3F00
ENDCHAR
STARTCHAR uacute
ENCODING 156
SWIDTH 667 0
DWIDTH 12 0
BBX 10 16 0 0
BITMAP
0300
0700
0E00
0C00
0000
0000
C0C0
C0C0
C0C0
C0C0
C0C0
C1C0
C3C0
E7C0
7EC0
3CC0
ENDCHAR
STARTCHAR ugrave
ENCODING 157
SWIDTH 667 0
DWIDTH 12 0
BBX 10 16 0 0
BITMAP
3000
3800
1C00
0C00
0000
0000
C0C0
C0C0
C0C0
C0C0
C0C0
C1C0
C3C0
E7C0
7EC0
3CC0
ENDCHAR
STARTCHAR ucircumflex
ENCODING 158
SWIDTH 667 0
DWIDTH 12 0
BBX 10 16 0 0
BITMAP
0C00
1E00
3F00
3300
0000
0000
C0C0
C0C0
C0C0
C0C0
C0C0
C1C0
C3C0
E7C0
7EC0
3CC0
ENDCHAR
STARTCHAR udieresis
ENCODING 159
SWIDTH 667 0
DWIDTH 12 0
BBX 10 14 0 0
BITMAP
3300
3300
0000
0000
C0C0
C0C0
C0C0
C0C0
C0C0
C1C0
C3C0
E7C0
7EC0
3CC0
ENDCHAR
STARTCHAR dagger
ENCODING 160
SWIDTH 667 0
DWIDTH 12 0
BBX 6 10 2 4
BITMAP
30
30
FC
FC
30
30
30
30
30
30
ENDCHAR
STARTCHAR degree
ENCODING 161
SWIDTH 667 0
DWIDTH 12 0
BBX 8 8 2 8
BITMAP
3C
7E
E7
C3
C3
E7
7E
3C
ENDCHAR
STARTCHAR cent
ENCODING 162
SWIDTH 667 0
DWIDTH 12 0
BBX 10 14 0 -2
BITMAP
0C00
0C00
3F00
7F80
EDC0
CCC0
CC00
CC00
CC00
EC00
7FC0
3FC0
0C00
0C00
ENDCHAR
STARTCHAR sterling
ENCODING 163
SWIDTH 667 0
DWIDTH 12 0
BBX 10 16 0 0
BITMAP
3C00
7E00
E700
C300
C000
C000
FC00
FC00
C000
C000
C000
C000
C0C0
C1C0
FF80
FF00
ENDCHAR
STARTCHAR section
ENCODING 164
SWIDTH 667 0
DWIDTH 12 0
BBX 10 20 0 -2
BITMAP
1F00
7F80
61C0
E0C0
70C0
38C0
DC00
CE00
C700
E380
71C0
38C0
1CC0
0EC0
C700
C380
C1C0
E180
7F80
3E00
ENDCHAR
STARTCHAR bullet
ENCODING 165
SWIDTH 667 0
DWIDTH 12 0
BBX 10 10 0 2
BITMAP
1E00
7F80
7F80
FFC0
FFC0
FFC0
FFC0
7F80
7F80
1E00
ENDCHAR
STARTCHAR paragraph
ENCODING 166
SWIDTH 667 0
DWIDTH 12 0
BBX 10 16 0 0
BITMAP
1FC0
7FC0
7CC0
ECC0
CCC0
CCC0
ECC0
7CC0
7FC0
1FC0
0CC0
0CC0
0CC0
0CC0
0CC0
0CC0
ENDCHAR
STARTCHAR germandbls
ENCODING 167
SWIDTH 667 0
DWIDTH 12 0
BBX 10 18 0 -2
BITMAP
0F00
1F80
39C0
70C0
E0C0
C1C0
C380
C300
C300
C380
C1C0
C0C0
C0C0
C1C0
CF80
CF00
C000
C000
ENDCHAR
STARTCHAR registered
ENCODING 168
SWIDTH 667 0
DWIDTH 12 0
BBX 10 12 0 2
BITMAP
7800
FE00
8700
0180
F180
F8C0
CCC0
CCC0
F8C0
F9C0
DF80
CF00
ENDCHAR
STARTCHAR copyright
ENCODING 169
SWIDTH 667 0
DWIDTH 12 0
BBX 10 14 0 0
BITMAP
7800
FE00
8700
0180
3D80
7CC0
C0C0
C0C0
7CC0
3D80
0180
8700
FE00
7800
ENDCHAR
STARTCHAR trademark
ENCODING 170
SWIDTH 667 0
DWIDTH 12 0
BBX 12 6 0 8
BITMAP
FF30
FFF0
33F0
33F0
3330
3330
ENDCHAR
STARTCHAR acute
ENCODING 171
SWIDTH 667 0
DWIDTH 12 0
BBX 4 4 4 10
BITMAP
30
70
E0
C0
ENDCHAR
STARTCHAR dieresis
ENCODING 172
SWIDTH 667 0
DWIDTH 12 0
BBX 6 2 2 12
BITMAP
CC
CC
ENDCHAR
STARTCHAR notequal
ENCODING 173
SWIDTH 667 0
DWIDTH 12 0
BBX 10 10 0 2
BITMAP
0300
0300
FFC0
FFC0
0C00
0C00
FFC0
FFC0
3000
3000
ENDCHAR
STARTCHAR AE
ENCODING 174
SWIDTH 667 0
DWIDTH 12 0
BBX 10 14 0 0
BITMAP
3FC0
7FC0
EC00
CC00
CC00
CC00
FF00
FF00
CC00
CC00
CC00
CC00
CFC0
CFC0
ENDCHAR
STARTCHAR Oslash
ENCODING 175
SWIDTH 667 0
DWIDTH 12 0
BBX 10 14 0 0
BITMAP
3F00
7F80
E1C0
C1C0
C3C0
C7C0
CEC0
DCC0
F8C0
F0C0
E0C0
E1C0
7F80
3F00
ENDCHAR
STARTCHAR infinity
ENCODING 176
SWIDTH 667 0
DWIDTH 12 0
BBX 10 6 0 4
BITMAP
3300
7F80
CCC0
CCC0
7F80
3300
ENDCHAR
STARTCHAR plusminus
ENCODING 177
SWIDTH 667 0
DWIDTH 12 0
BBX 10 12 0 0
BITMAP
0C00
0C00
0C00
0C00
FFC0
FFC0
0C00
0C00
0C00
0C00
FFC0
FFC0
ENDCHAR
STARTCHAR lessequal
ENCODING 178
SWIDTH 667 0
DWIDTH 12 0
BBX 6 14 2 0
BITMAP
08
1C
38
70
E0
E0
70
38
1C
08
00
00
FC
FC
ENDCHAR
STARTCHAR greaterequal
ENCODING 179
SWIDTH 667 0
DWIDTH 12 0
BBX 6 14 4 0
BITMAP
40
E0
70
38
1C
1C
38
70
E0
40
00
00
FC
FC
ENDCHAR
STARTCHAR yen
ENCODING 180
SWIDTH 667 0
DWIDTH 12 0
BBX 10 14 0 0
BITMAP
C0C0
E1C0
7380
3F00
FFC0
FFC0
0C00
0C00
FFC0
FFC0
0C00
0C00
0C00
0C00
ENDCHAR
STARTCHAR mu
ENCODING 181
SWIDTH 667 0
DWIDTH 12 0
BBX 10 14 0 -4
BITMAP
C300
C300
C300
C300
C300
C300
C300
C780
FFC0
FCC0
C000
C000
C000
C000
ENDCHAR
STARTCHAR partialdiff
ENCODING 182
SWIDTH 667 0
DWIDTH 12 0
BBX 8 14 2 0
BITMAP
30
38
1C
0E
0F
1F
3B
73
E3
C3
C3
E7
7E
3C
ENDCHAR
STARTCHAR summation
ENCODING 183
SWIDTH 667 0
DWIDTH 12 0
BBX 10 14 0 0
BITMAP
FFC0
FFC0
70C0
38C0
1C00
0E00
0700
0700
0E00
1C00
38C0
70C0
FFC0
FFC0
ENDCHAR
STARTCHAR product
ENCODING 184
SWIDTH 667 0
DWIDTH 12 0
BBX 10 14 0 0
BITMAP
FFC0
FFC0
3300
3300
3300
3300
3300
3300
3300
3300
3300
3300
3300
3300
ENDCHAR
STARTCHAR pi
ENCODING 185
SWIDTH 667 0
DWIDTH 12 0
BBX 10 10 0 0
BITMAP
FFC0
FFC0
3300
3300
3300
3300
3300
3300
3300
3300
ENDCHAR
STARTCHAR integral
ENCODING 186
SWIDTH 667 0
DWIDTH 12 0
BBX 10 22 0 -4
BITMAP
03C0
07C0
0E00
0C00
0C00
0C00
0C00
0C00
0C00
0C00
0C00
0C00
0C00
0C00
0C00
0C00
0C00
0C00
0C00
1C00
F800
F000
ENDCHAR
STARTCHAR ordfeminine
ENCODING 187
SWIDTH 667 0
DWIDTH 12 0
BBX 8 12 2 6
BITMAP
3F
7F
E3
C3
C3
E3
7F
3F
00
00
FF
FF
ENDCHAR
STARTCHAR ordmasculine
ENCODING 188
SWIDTH 667 0
DWIDTH 12 0
BBX 8 12 2 6
BITMAP
3C
7E
E7
C3
C3
E7
7E
3C
00
00
FF
FF
ENDCHAR
STARTCHAR Omega
ENCODING 189
SWIDTH 667 0
DWIDTH 12 0
BBX 10 14 0 0
BITMAP
3F00
7F80
E1C0
C0C0
C0C0
C0C0
C0C0
C0C0
E1C0
6380
3300
3300
E1C0
C0C0
ENDCHAR
STARTCHAR ae
ENCODING 190
SWIDTH 667 0
DWIDTH 12 0
BBX 10 10 0 0
BITMAP
3F00
7F80
EDC0
CCC0
CFC0
CFC0
CC00
EC00
7FC0
3FC0
ENDCHAR
STARTCHAR oslash
ENCODING 191
SWIDTH 667 0
DWIDTH 12 0
BBX 10 10 0 0
BITMAP
3F00
7F80
E3C0
C7C0
CEC0
DCC0
F8C0
F1C0
7F80
3F00
ENDCHAR
STARTCHAR questiondown
ENCODING 192
SWIDTH 667 0
DWIDTH 12 0
BBX 10 14 0 0
BITMAP
0C00
0C00
0000
0000
0C00
1C00
3800
7000
E000
C000
C0C0
E1C0
7F80
3F00
ENDCHAR
STARTCHAR exclamdown
ENCODING 193
SWIDTH 667 0
DWIDTH 12 0
BBX 2 14 6 0
BITMAP
C0
C0
00
00
C0
C0
C0
C0
C0
C0
C0
C0
C0
C0
ENDCHAR
STARTCHAR logicalnot
ENCODING 194
SWIDTH 667 0
DWIDTH 12 0
BBX 10 6 0 2
BITMAP
FFC0
FFC0
00C0
00C0
00C0
00C0
ENDCHAR
STARTCHAR radical
ENCODING 195
SWIDTH 667 0
DWIDTH 12 0
BBX 10 12 0 0
BITMAP
01C0
03C0
0300
0700
0600
CE00
EC00
7C00
7800
3800
3000
1000
ENDCHAR
STARTCHAR florin
ENCODING 196
SWIDTH 667 0
DWIDTH 12 0
BBX 10 22 0 -4
BITMAP
03C0
07C0
0E00
0C00
0C00
0C00
0C00
0C00
3F00
3F00
0C00
0C00
0C00
0C00
0C00
0C00
0C00
0C00
0C00
1C00
F800
F000
ENDCHAR
STARTCHAR approxequal
ENCODING 197
SWIDTH 667 0
DWIDTH 12 0
BBX 10 10 0 2
BITMAP
00C0
00C0
3F80
7F00
C000
00C0
3F80
7F00
C000
C000
ENDCHAR
STARTCHAR Delta
ENCODING 198
SWIDTH 667 0
DWIDTH 12 0
BBX 10 11 0 0
BITMAP
0C00
0C00
1E00
1E00
3300
3300
6180
6180
C0C0
FFC0
FFC0
ENDCHAR
STARTCHAR guillemotleft
ENCODING 199
SWIDTH 667 0
DWIDTH 12 0
BBX 10 10 0 -1
BITMAP
30C0
71C0
6180
E380
C300
C300
E380
6180
71C0
30C0
ENDCHAR
STARTCHAR guillemotright
ENCODING 200
SWIDTH 667 0
DWIDTH 12 0
BBX 10 10 0 -1
BITMAP
C300
E380
6180
71C0
30C0
30C0
71C0
6180
E380
C300
ENDCHAR
STARTCHAR ellipsis
ENCODING 201
SWIDTH 667 0
DWIDTH 12 0
BBX 10 2 0 0
BITMAP
CCC0
CCC0
ENDCHAR
STARTCHAR nbspace
ENCODING 202
SWIDTH 667 0
DWIDTH 12 0
BBX 0 0 0 -4
BITMAP
ENDCHAR
STARTCHAR Agrave
ENCODING 203
SWIDTH 667 0
DWIDTH 12 0
BBX 10 18 0 0
BITMAP
3000
3800
1C00
0C00
0C00
1E00
1E00
3300
3300
6180
6180
C0C0
FFC0
FFC0
C0C0
C0C0
C0C0
C0C0
ENDCHAR
STARTCHAR Atilde
ENCODING 204
SWIDTH 667 0
DWIDTH 12 0
BBX 10 18 0 0
BITMAP
30C0
7CC0
CF80
C300
0C00
1E00
1E00
3300
3300
6180
6180
C0C0
FFC0
FFC0
C0C0
C0C0
C0C0
C0C0
ENDCHAR
STARTCHAR Otilde
ENCODING 205
SWIDTH 667 0
DWIDTH 12 0
BBX 10 18 0 0
BITMAP
30C0
7CC0
CF80
C300
3F00
7F80
E1C0
C0C0
C0C0
C0C0
C0C0
C0C0
C0C0
C0C0
C0C0
E1C0
7F80
3F00
ENDCHAR
STARTCHAR OE
ENCODING 206
SWIDTH 667 0
DWIDTH 12 0
BBX 10 14 0 0
BITMAP
3FC0
7FC0
EC00
CC00
CC00
CC00
CF00
CF00
CC00
CC00
CC00
EC00
7FC0
3FC0
ENDCHAR
STARTCHAR oe
ENCODING 207
SWIDTH 667 0
DWIDTH 12 0
BBX 10 10 0 0
BITMAP
3300
7F80
CCC0
CCC0
CFC0
CFC0
CC00
CC00
7FC0
33C0
ENDCHAR
STARTCHAR endash
ENCODING 208
SWIDTH 667 0
DWIDTH 12 0
BBX 6 2 2 6
BITMAP
FC
FC
ENDCHAR
STARTCHAR emdash
ENCODING 209
SWIDTH 667 0
DWIDTH 12 0
BBX 12 2 0 6
BITMAP
FFF0
FFF0
ENDCHAR
STARTCHAR quotedblleft
ENCODING 210
SWIDTH 667 0
DWIDTH 12 0
BBX 8 7 2 8
BITMAP
22
77
EE
CC
CC
CC
CC
ENDCHAR
STARTCHAR quotedblright
ENCODING 211
SWIDTH 667 0
DWIDTH 12 0
BBX 8 7 2 7
BITMAP
33
33
33
33
77
EE
44
ENDCHAR
STARTCHAR quoteleft
ENCODING 212
SWIDTH 667 0
DWIDTH 12 0
BBX 4 7 4 8
BITMAP
20
70
E0
C0
C0
C0
C0
ENDCHAR
STARTCHAR quoteright
ENCODING 213
SWIDTH 667 0
DWIDTH 12 0
BBX 4 7 4 7
BITMAP
30
30
30
30
70
E0
40
ENDCHAR
STARTCHAR divide
ENCODING 214
SWIDTH 667 0
DWIDTH 12 0
BBX 10 10 0 2
BITMAP
0C00
0C00
0000
0000
FFC0
FFC0
0000
0000
0C00
0C00
ENDCHAR
STARTCHAR lozenge
ENCODING 215
SWIDTH 667 0
DWIDTH 12 0
BBX 11 11 0 1
BITMAP
0400
0E00
1F00
3B80
71C0
E0E0
71C0
3B80
1F00
0E00
0400
ENDCHAR
STARTCHAR ydieresis
ENCODING 216
SWIDTH 667 0
DWIDTH 12 0
BBX 10 18 0 -4
BITMAP
3300
3300
0000
0000
C0C0
C0C0
C0C0
C0C0
C0C0
C0C0
C0C0
E0C0
7FC0
3FC0
00C0
01C0
3F80
3F00
ENDCHAR
STARTCHAR Ydieresis
ENCODING 217
SWIDTH 667 0
DWIDTH 12 0
BBX 10 18 0 0
BITMAP
3300
3300
0000
0000
C0C0
C0C0
C0C0
C0C0
C0C0
E1C0
7380
3F00
1E00
0C00
0C00
0C00
0C00
0C00
ENDCHAR
STARTCHAR fraction
ENCODING 218
SWIDTH 667 0
DWIDTH 12 0
BBX 8 8 0 2
BITMAP
02
07
0E
1C
38
70
E0
40
ENDCHAR
STARTCHAR currency
ENCODING 219
SWIDTH 667 0
DWIDTH 12 0
BBX 10 10 0 0
BITMAP
4080
E1C0
7F80
3F00
3300
3300
3F00
7F80
E1C0
4080
ENDCHAR
STARTCHAR guilsinglleft
ENCODING 220
SWIDTH 667 0
DWIDTH 12 0
BBX 4 10 0 -1
BITMAP
30
70
60
E0
C0
C0
E0
60
70
30
ENDCHAR
STARTCHAR guilsinglright
ENCODING 221
SWIDTH 667 0
DWIDTH 12 0
BBX 4 10 0 -1
BITMAP
C0
E0
60
70
30
30
70
60
E0
C0
ENDCHAR
STARTCHAR fi
ENCODING 222
SWIDTH 667 0
DWIDTH 12 0
BBX 12 14 0 0
BITMAP
0F00
1F00
3800
3000
FFC0
FFC0
30C0
30C0
30C0
30C0
30C0
30C0
33F0
33F0
ENDCHAR
STARTCHAR fl
ENCODING 223
SWIDTH 667 0
DWIDTH 12 0
BBX 12 14 0 0
BITMAP
0FC0
1FC0
38C0
30C0
FCC0
FCC0
30C0
30C0
30C0
30C0
30C0
30C0
33F0
33F0
ENDCHAR
STARTCHAR daggerdbl
ENCODING 224
SWIDTH 667 0
DWIDTH 12 0
BBX 6 10 2 4
BITMAP
30
30
FC
FC
30
30
FC
FC
30
30
ENDCHAR
STARTCHAR periodcentered
ENCODING 225
SWIDTH 667 0
DWIDTH 12 0
BBX 4 4 4 4
BITMAP
60
F0
F0
60
ENDCHAR
STARTCHAR quotesinglbase
ENCODING 226
SWIDTH 667 0
DWIDTH 12 0
BBX 4 7 0 -3
BITMAP
30
30
30
30
70
E0
40
ENDCHAR
STARTCHAR quotedblbase
ENCODING 227
SWIDTH 667 0
DWIDTH 12 0
BBX 8 7 0 -3
BITMAP
33
33
33
33
77
EE
44
ENDCHAR
STARTCHAR perthousand
ENCODING 228
SWIDTH 667 0
DWIDTH 12 0
BBX 12 16 0 0
BITMAP
3FF0
7FF0
CCE0
CDC0
CF80
CF00
7E00
3C00
3CC0
7FE0
F330
F330
B330
1330
1FE0
0CC0
ENDCHAR
STARTCHAR Acircumflex
ENCODING 229
SWIDTH 667 0
DWIDTH 12 0
BBX 10 18 0 0
BITMAP
0C00
1E00
3F00
3300
0C00
1E00
1E00
3300
3300
6180
6180
C0C0
FFC0
FFC0
C0C0
C0C0
C0C0
C0C0
ENDCHAR
STARTCHAR Ecircumflex
ENCODING 230
SWIDTH 667 0
DWIDTH 12 0
BBX 10 18 0 0
BITMAP
0C00
1E00
3F00
3300
FFC0
FFC0
C000
C000
C000
C000
FF00
FF00
C000
C000
C000
C000
FFC0
FFC0
ENDCHAR
STARTCHAR Aacute
ENCODING 231
SWIDTH 667 0
DWIDTH 12 0
BBX 10 18 0 0
BITMAP
0300
0700
0E00
0C00
0C00
1E00
1E00
3300
3300
6180
6180
C0C0
FFC0
FFC0
C0C0
C0C0
C0C0
C0C0
ENDCHAR
STARTCHAR Edieresis
ENCODING 232
SWIDTH 667 0
DWIDTH 12 0
BBX 10 18 0 0
BITMAP
3300
3300
0000
0000
FFC0
FFC0
C000
C000
C000
C000
FF00
FF00
C000
C000
C000
C000
FFC0
FFC0
ENDCHAR
STARTCHAR Egrave
ENCODING 233
SWIDTH 667 0
DWIDTH 12 0
BBX 10 18 0 0
BITMAP
3000
3800
1C00
0C00
FFC0
FFC0
C000
C000
C000
C000
FF00
FF00
C000
C000
C000
C000
FFC0
FFC0
ENDCHAR
STARTCHAR Iacute
ENCODING 234
SWIDTH 667 0
DWIDTH 12 0
BBX 10 18 0 0
BITMAP
0300
0700
0E00
0C00
FFC0
FFC0
0C00
0C00
0C00
0C00
0C00
0C00
0C00
0C00
0C00
0C00
FFC0
FFC0
ENDCHAR
STARTCHAR Icircumflex
ENCODING 235
SWIDTH 667 0
DWIDTH 12 0
BBX 10 18 0 0
BITMAP
0C00
1E00
3F00
3300
FFC0
FFC0
0C00
0C00
0C00
0C00
0C00
0C00
0C00
0C00
0C00
0C00
FFC0
FFC0
ENDCHAR
STARTCHAR Idieresis
ENCODING 236
SWIDTH 667 0
DWIDTH 12 0
BBX 10 18 0 0
BITMAP
3300
3300
0000
0000
FFC0
FFC0
0C00
0C00
0C00
0C00
0C00
0C00
0C00
0C00
0C00
0C00
FFC0
FFC0
ENDCHAR
STARTCHAR Igrave
ENCODING 237
SWIDTH 667 0
DWIDTH 12 0
BBX 10 18 0 0
BITMAP
3000
3800
1C00
0C00
FFC0
FFC0
0C00
0C00
0C00
0C00
0C00
0C00
0C00
0C00
0C00
0C00
FFC0
FFC0
ENDCHAR
STARTCHAR Oacute
ENCODING 238
SWIDTH 667 0
DWIDTH 12 0
BBX 10 18 0 0
BITMAP
0300
0700
0E00
0C00
3F00
7F80
E1C0
C0C0
C0C0
C0C0
C0C0
C0C0
C0C0
C0C0
C0C0
E1C0
7F80
3F00
ENDCHAR
STARTCHAR Ocircumflex
ENCODING 239
SWIDTH 667 0
DWIDTH 12 0
BBX 10 18 0 0
BITMAP
0C00
1E00
3F00
3300
0000
3F00
7F80
E1C0
C0C0
C0C0
C0C0
C0C0
C0C0
C0C0
C0C0
E1C0
7F80
3F00
ENDCHAR
STARTCHAR apple
ENCODING 240
SWIDTH 667 0
DWIDTH 12 0
BBX 11 17 0 0
BITMAP
0100
0300
0300
0200
39C0
7FE0
7FC0
FF80
FF80
FFC0
FFC0
7FE0
7FE0
7FE0
3FC0
3FC0
1980
ENDCHAR
STARTCHAR Ograve
ENCODING 241
SWIDTH 667 0
DWIDTH 12 0
BBX 10 18 0 0
BITMAP
3000
3800
1C00
0C00
3F00
7F80
E1C0
C0C0
C0C0
C0C0
C0C0
C0C0
C0C0
C0C0
C0C0
E1C0
7F80
3F00
ENDCHAR
STARTCHAR Uacute
ENCODING 242
SWIDTH 667 0
DWIDTH 12 0
BBX 10 18 0 0
BITMAP
0300
0700
0E00
0C00
C0C0
C0C0
C0C0
C0C0
C0C0
C0C0
C0C0
C0C0
C0C0
C0C0
C0C0
E1C0
7F80
3F00
ENDCHAR
STARTCHAR Ucircumflex
ENCODING 243
SWIDTH 667 0
DWIDTH 12 0
BBX 10 18 0 0
BITMAP
0C00
1E00
3F00
3300
C0C0
C0C0
C0C0
C0C0
C0C0
C0C0
C0C0
C0C0
C0C0
C0C0
C0C0
E1C0
7F80
3F00
ENDCHAR
STARTCHAR Ugrave
ENCODING 244
SWIDTH 667 0
DWIDTH 12 0
BBX 10 18 0 0
BITMAP
3000
3800
1C00
0C00
C0C0
C0C0
C0C0
C0C0
C0C0
C0C0
C0C0
C0C0
C0C0
C0C0
C0C0
E1C0
7F80
3F00
ENDCHAR
STARTCHAR dotlessi
ENCODING 245
SWIDTH 667 0
DWIDTH 12 0
BBX 6 10 2 0
BITMAP
F0
F0
30
30
30
30
30
30
FC
FC
ENDCHAR
STARTCHAR circumflex
ENCODING 246
SWIDTH 667 0
DWIDTH 12 0
BBX 6 4 2 12
BITMAP
30
78
FC
CC
ENDCHAR
STARTCHAR tilde
ENCODING 247
SWIDTH 667 0
DWIDTH 12 0
BBX 10 4 0 12
BITMAP
30C0
7CC0
CF80
C300
ENDCHAR
STARTCHAR macron
ENCODING 248
SWIDTH 667 0
DWIDTH 12 0
BBX 6 2 2 12
BITMAP
FC
FC
ENDCHAR
STARTCHAR breve
ENCODING 249
SWIDTH 667 0
DWIDTH 12 0
BBX 8 4 2 12
BITMAP
C3
E7
7E
3C
ENDCHAR
STARTCHAR dotaccent
ENCODING 250
SWIDTH 667 0
DWIDTH 12 0
BBX 4 4 4 10
BITMAP
60
F0
F0
60
ENDCHAR
STARTCHAR ring
ENCODING 251
SWIDTH 667 0
DWIDTH 12 0
BBX 6 6 2 10
BITMAP
30
78
CC
CC
78
30
ENDCHAR
STARTCHAR cedilla
ENCODING 252
SWIDTH 667 0
DWIDTH 12 0
BBX 4 6 2 -4
BITMAP
F0
F0
30
70
E0
40
ENDCHAR
STARTCHAR hungarumlaut
ENCODING 253
SWIDTH 667 0
DWIDTH 12 0
BBX 10 4 0 12
BITMAP
30C0
71C0
E380
C300
ENDCHAR
STARTCHAR ogonek
ENCODING 254
SWIDTH 667 0
DWIDTH 12 0
BBX 4 6 2 -4
BITMAP
F0
F0
C0
E0
70
20
ENDCHAR
STARTCHAR caron
ENCODING 255
SWIDTH 667 0
DWIDTH 12 0
BBX 6 4 2 12
BITMAP
CC
FC
78
30
ENDCHAR
ENDFONT
